<svg width="40" height="40" viewBox="0 0 40 40" fill="none" xmlns="http://www.w3.org/2000/svg">
<g clip-path="url(#clip0)">
<path d="M39.8519 19.0584L36.6409 15.0911L37.123 10.0558C37.1467 9.73511 36.961 9.43561 36.6632 9.31427L31.9617 7.39362L29.8556 2.79592C29.7181 2.49846 29.4014 2.32651 29.077 2.37323L24.0714 3.11479L19.9483 0.148534C19.6847 -0.0491858 19.3221 -0.0491858 19.0584 0.148534L15.0911 3.35951L10.0558 2.87749C9.73326 2.85487 9.43311 3.04388 9.31427 3.34468L7.39362 8.03878L2.79592 10.1448C2.49846 10.2824 2.32651 10.599 2.37323 10.9235L3.11479 15.929L0.148534 20.0521C-0.0491858 20.3158 -0.0491858 20.6784 0.148534 20.942L3.28535 24.9094L2.80334 29.9446C2.78072 30.2672 2.96972 30.5673 3.27052 30.6862L8.03878 32.6068L10.1448 37.2045C10.2824 37.502 10.599 37.6739 10.9235 37.6272L15.929 36.8857L20.0521 39.8519C20.3158 40.0496 20.6784 40.0496 20.942 39.8519L24.9094 36.7151L29.9446 37.1971C30.2653 37.2208 30.5648 37.0352 30.6862 36.7373L32.6068 31.9617L37.2045 29.8556C37.502 29.7181 37.6738 29.4014 37.6272 29.077L36.8857 24.0714L39.8519 19.9483C40.0496 19.6847 40.0496 19.3222 39.8519 19.0584ZM35.4841 23.4559C35.3754 23.6113 35.3302 23.8023 35.358 23.9898L36.0477 28.7359L31.6799 30.7307C31.5071 30.8107 31.3717 30.9541 31.3017 31.1311L29.5293 35.5805L24.7537 35.1281C24.5646 35.1108 24.3763 35.1665 24.2271 35.2839L20.46 38.2501L16.5519 35.4693C16.4267 35.3786 16.2764 35.3294 16.1218 35.3284H16.018L11.272 36.018L9.27719 31.6576C9.1972 31.4848 9.0538 31.3494 8.87675 31.2794L4.42736 29.5071L4.87972 24.7314C4.89705 24.5424 4.84134 24.354 4.72399 24.2049L1.75773 20.4377L4.5386 16.5297C4.64733 16.3743 4.69247 16.1833 4.66466 15.9958L3.97501 11.2498L8.34282 9.25495C8.51561 9.17495 8.65104 9.03155 8.72102 8.8545L10.4934 4.40512L15.269 4.85747C15.458 4.8748 15.6464 4.81909 15.7955 4.70174L19.5627 1.73548L23.4707 4.51635C23.6261 4.62508 23.8171 4.67023 24.0047 4.64242L28.7507 3.95276L30.7455 8.32058C30.8255 8.49336 30.9689 8.62879 31.1459 8.69878L35.5953 10.4711L35.143 15.2468C35.1256 15.4358 35.1813 15.6242 35.2987 15.7733L38.265 19.5405L35.4841 23.4559Z" fill="#0044FF"/>
<path d="M10.0139 17.1C10.6979 16.836 11.3639 16.5 12.0119 16.092C12.6599 15.672 13.2539 15.15 13.7939 14.526H14.9819V27H13.3079V16.848C13.1639 16.98 12.9839 17.118 12.7679 17.262C12.5639 17.406 12.3359 17.544 12.0839 17.676C11.8439 17.808 11.5859 17.934 11.3099 18.054C11.0459 18.174 10.7879 18.276 10.5359 18.36L10.0139 17.1Z" fill="#0044FF"/>
<path d="M22.082 19.332C23.894 19.404 25.22 19.8 26.06 20.52C26.912 21.24 27.338 22.218 27.338 23.454C27.338 24.006 27.242 24.516 27.05 24.984C26.87 25.452 26.588 25.854 26.204 26.19C25.832 26.526 25.358 26.79 24.782 26.982C24.206 27.174 23.522 27.27 22.73 27.27C22.418 27.27 22.1 27.246 21.776 27.198C21.452 27.15 21.152 27.09 20.876 27.018C20.6 26.946 20.354 26.874 20.138 26.802C19.922 26.73 19.766 26.67 19.67 26.622L19.994 25.164C20.198 25.26 20.528 25.386 20.984 25.542C21.452 25.698 22.022 25.776 22.694 25.776C23.234 25.776 23.684 25.716 24.044 25.596C24.416 25.476 24.716 25.314 24.944 25.11C25.172 24.906 25.334 24.672 25.43 24.408C25.538 24.132 25.592 23.844 25.592 23.544C25.592 23.088 25.514 22.686 25.358 22.338C25.202 21.978 24.926 21.678 24.53 21.438C24.134 21.198 23.606 21.018 22.946 20.898C22.286 20.766 21.452 20.7 20.444 20.7C20.516 20.112 20.57 19.56 20.606 19.044C20.654 18.528 20.696 18.024 20.732 17.532C20.768 17.04 20.798 16.554 20.822 16.074C20.846 15.582 20.87 15.066 20.894 14.526H26.906V15.948H22.352C22.34 16.128 22.322 16.374 22.298 16.686C22.274 16.986 22.25 17.304 22.226 17.64C22.202 17.964 22.178 18.282 22.154 18.594C22.13 18.906 22.106 19.152 22.082 19.332Z" fill="#0044FF"/>
</g>
<defs>
<clipPath id="clip0">
<rect width="40" height="40" fill="white"/>
</clipPath>
</defs>
</svg>
