<svg width="40" height="40" viewBox="0 0 40 40" fill="none" xmlns="http://www.w3.org/2000/svg">
<path d="M38.75 24.3751H33.0375C32.901 23.8388 32.5898 23.3633 32.1529 23.0237C31.716 22.684 31.1784 22.4996 30.625 22.4996C30.0716 22.4996 29.534 22.684 29.0971 23.0237C28.6602 23.3633 28.349 23.8388 28.2125 24.3751H25.625V22.4126C26.2137 22.2611 26.7268 21.9 27.0681 21.397C27.4094 20.894 27.5554 20.2838 27.4787 19.6808C27.402 19.0778 27.1078 18.5235 26.6515 18.122C26.1951 17.7205 25.6079 17.4994 25 17.5001H23.75V14.3751C23.75 14.2094 23.6842 14.0504 23.5669 13.9332C23.4497 13.816 23.2908 13.7501 23.125 13.7501H22.5V11.2501H23.125C23.2908 11.2501 23.4497 11.1843 23.5669 11.0671C23.6842 10.9499 23.75 10.7909 23.75 10.6251V8.75013H28.75C29.1895 8.75278 29.6219 8.63953 30.0036 8.42179C30.3854 8.20406 30.703 7.88955 30.9244 7.50994C31.1459 7.13034 31.2634 6.69907 31.265 6.2596C31.2667 5.82012 31.1525 5.38798 30.9339 5.00672C30.7153 4.62546 30.4 4.30856 30.0199 4.08796C29.6398 3.86736 29.2083 3.75085 28.7688 3.75018C28.3294 3.74951 27.8975 3.86471 27.5167 4.08415C27.1359 4.3036 26.8197 4.61954 26.6 5.00013H22.15C21.9339 4.62046 21.6212 4.30477 21.2435 4.08516C20.8659 3.86556 20.4368 3.74988 20 3.74988C19.5632 3.74988 19.1341 3.86556 18.7565 4.08516C18.3788 4.30477 18.0661 4.62046 17.85 5.00013H13.4C13.1797 4.62196 12.8637 4.30842 12.4839 4.09099C12.1041 3.87355 11.6737 3.75989 11.2361 3.7614C10.7984 3.76292 10.3688 3.87957 9.99052 4.09963C9.6122 4.31969 9.29845 4.63541 9.08076 5.0151C8.86307 5.39479 8.74912 5.82507 8.75034 6.26273C8.75156 6.7004 8.86792 7.13003 9.08773 7.5085C9.30753 7.88697 9.62305 8.20093 10.0026 8.41888C10.3821 8.63682 10.8123 8.75106 11.25 8.75013H16.25V10.6251C16.25 10.7909 16.3158 10.9499 16.4331 11.0671C16.5503 11.1843 16.7092 11.2501 16.875 11.2501H17.5V13.7501H16.875C16.7092 13.7501 16.5503 13.816 16.4331 13.9332C16.3158 14.0504 16.25 14.2094 16.25 14.3751V17.5001H15C14.3921 17.4994 13.8049 17.7205 13.3485 18.122C12.8922 18.5235 12.598 19.0778 12.5213 19.6808C12.4446 20.2838 12.5906 20.894 12.9319 21.397C13.2732 21.9 13.7863 22.2611 14.375 22.4126V24.3751H11.7875C11.651 23.8388 11.3398 23.3633 10.9029 23.0237C10.466 22.684 9.92838 22.4996 9.375 22.4996C8.82162 22.4996 8.28401 22.684 7.84712 23.0237C7.41023 23.3633 7.09896 23.8388 6.9625 24.3751H1.25C1.08424 24.3751 0.925268 24.441 0.808058 24.5582C0.690848 24.6754 0.625 24.8344 0.625 25.0001V33.7501C0.625 33.9159 0.690848 34.0749 0.808058 34.1921C0.925268 34.3093 1.08424 34.3751 1.25 34.3751H6.9625C7.09896 34.9114 7.41023 35.387 7.84712 35.7266C8.28401 36.0663 8.82162 36.2506 9.375 36.2506C9.92838 36.2506 10.466 36.0663 10.9029 35.7266C11.3398 35.387 11.651 34.9114 11.7875 34.3751H14.8812C15.4625 34.6001 18.2062 35.6251 20 35.6251C21.7938 35.6251 24.5375 34.6001 25.1187 34.3751H28.2125C28.349 34.9114 28.6602 35.387 29.0971 35.7266C29.534 36.0663 30.0716 36.2506 30.625 36.2506C31.1784 36.2506 31.716 36.0663 32.1529 35.7266C32.5898 35.387 32.901 34.9114 33.0375 34.3751H38.75C38.9158 34.3751 39.0747 34.3093 39.1919 34.1921C39.3092 34.0749 39.375 33.9159 39.375 33.7501V25.0001C39.375 24.8344 39.3092 24.6754 39.1919 24.5582C39.0747 24.441 38.9158 24.3751 38.75 24.3751ZM28.75 5.00013C28.9972 5.00013 29.2389 5.07344 29.4445 5.2108C29.65 5.34815 29.8102 5.54337 29.9049 5.77178C29.9995 6.00019 30.0242 6.25152 29.976 6.494C29.9277 6.73647 29.8087 6.9592 29.6339 7.13402C29.4591 7.30883 29.2363 7.42788 28.9939 7.47611C28.7514 7.52435 28.5001 7.49959 28.2716 7.40498C28.0432 7.31037 27.848 7.15016 27.7107 6.9446C27.5733 6.73903 27.5 6.49736 27.5 6.25013C27.501 5.91892 27.633 5.60155 27.8672 5.36734C28.1014 5.13314 28.4188 5.00112 28.75 5.00013ZM11.25 7.50013C11.0028 7.50013 10.7611 7.42682 10.5555 7.28947C10.35 7.15212 10.1898 6.9569 10.0951 6.72849C10.0005 6.50008 9.97579 6.24875 10.024 6.00627C10.0722 5.76379 10.1913 5.54107 10.3661 5.36625C10.5409 5.19143 10.7637 5.07238 11.0061 5.02415C11.2486 4.97592 11.4999 5.00067 11.7284 5.09528C11.9568 5.18989 12.152 5.35011 12.2893 5.55567C12.4267 5.76123 12.5 6.00291 12.5 6.25013C12.499 6.58135 12.367 6.89872 12.1328 7.13292C11.8986 7.36713 11.5812 7.49914 11.25 7.50013ZM6.875 33.1251H1.875V25.6251H6.875V33.1251ZM10.625 33.7501C10.625 34.0817 10.4933 34.3996 10.2589 34.634C10.0245 34.8684 9.70652 35.0001 9.375 35.0001C9.04348 35.0001 8.72554 34.8684 8.49112 34.634C8.2567 34.3996 8.125 34.0817 8.125 33.7501V25.0001C8.125 24.6686 8.2567 24.3507 8.49112 24.1162C8.72554 23.8818 9.04348 23.7501 9.375 23.7501C9.70652 23.7501 10.0245 23.8818 10.2589 24.1162C10.4933 24.3507 10.625 24.6686 10.625 25.0001V33.7501ZM14.375 33.1251H11.875V25.6251H14.375V33.1251ZM22.5 6.25013H26.25C26.2517 6.69075 26.3727 7.12269 26.6 7.50013H22.15C22.3773 7.12269 22.4983 6.69075 22.5 6.25013ZM20 5.00013C20.2472 5.00013 20.4889 5.07344 20.6945 5.2108C20.9 5.34815 21.0602 5.54337 21.1549 5.77178C21.2495 6.00019 21.2742 6.25152 21.226 6.494C21.1777 6.73647 21.0587 6.9592 20.8839 7.13402C20.7091 7.30883 20.4863 7.42788 20.2439 7.47611C20.0014 7.52435 19.7501 7.49959 19.5216 7.40498C19.2932 7.31037 19.098 7.15016 18.9607 6.9446C18.8233 6.73903 18.75 6.49736 18.75 6.25013C18.751 5.91892 18.883 5.60155 19.1172 5.36734C19.3514 5.13314 19.6688 5.00112 20 5.00013ZM22.5 8.75013V10.0001H17.5V8.75013H22.5ZM21.25 11.2501V13.7501H18.75V11.2501H21.25ZM13.4 7.50013C13.6273 7.12269 13.7483 6.69075 13.75 6.25013H17.5C17.5017 6.69075 17.6227 7.12269 17.85 7.50013H13.4ZM17.5 15.0001H22.5V17.5001H17.5V15.0001ZM24.375 33.3189C22.9749 33.8792 21.5015 34.2349 20 34.3751C18.4986 34.2342 17.0253 33.8785 15.625 33.3189V22.5001H24.375V33.3189ZM25 21.2501H15C14.6685 21.2501 14.3505 21.1184 14.1161 20.884C13.8817 20.6496 13.75 20.3317 13.75 20.0001C13.75 19.6686 13.8817 19.3507 14.1161 19.1163C14.3505 18.8818 14.6685 18.7501 15 18.7501H25C25.3315 18.7501 25.6495 18.8818 25.8839 19.1163C26.1183 19.3507 26.25 19.6686 26.25 20.0001C26.25 20.3317 26.1183 20.6496 25.8839 20.884C25.6495 21.1184 25.3315 21.2501 25 21.2501ZM28.125 33.1251H25.625V25.6251H28.125V33.1251ZM31.875 33.7501C31.875 34.0817 31.7433 34.3996 31.5089 34.634C31.2745 34.8684 30.9565 35.0001 30.625 35.0001C30.2935 35.0001 29.9755 34.8684 29.7411 34.634C29.5067 34.3996 29.375 34.0817 29.375 33.7501V25.0001C29.375 24.6686 29.5067 24.3507 29.7411 24.1162C29.9755 23.8818 30.2935 23.7501 30.625 23.7501C30.9565 23.7501 31.2745 23.8818 31.5089 24.1162C31.7433 24.3507 31.875 24.6686 31.875 25.0001V33.7501ZM38.125 33.1251H33.125V25.6251H38.125V33.1251Z" fill="#0044FF"/>
<path d="M3.125 26.875H4.375V28.125H3.125V26.875Z" fill="#0044FF"/>
<path d="M34.375 26.875H36.875V28.125H34.375V26.875Z" fill="#0044FF"/>
<path d="M20.0001 31.8751C19.0223 31.8863 18.0528 31.6948 17.1526 31.3126L16.5958 32.4376C17.6685 32.9071 18.8293 33.1415 20.0001 33.1251C21.171 33.1415 22.3318 32.9071 23.4045 32.4376L22.8458 31.3189C21.9469 31.7024 20.9773 31.892 20.0001 31.8751Z" fill="#0044FF"/>
</svg>
