<svg width="40" height="40" viewBox="0 0 40 40" fill="none" xmlns="http://www.w3.org/2000/svg">
<g clip-path="url(#clip0)">
<path d="M36.73 10.1113C36.683 8.98337 36.683 7.94946 36.683 6.91565C36.683 6.39655 36.2622 5.97575 35.7431 5.97575C29.4927 5.97575 24.6992 4.14291 20.6577 0.289391C20.3243 -0.0740119 19.7594 -0.0982988 19.3961 0.235151C19.3772 0.252421 19.3592 0.270592 19.3419 0.289391C15.3003 4.143 10.5069 5.97575 4.25651 5.97575C3.7374 5.97575 3.31661 6.39655 3.31661 6.91565C3.31661 7.94955 3.31661 8.98346 3.26966 10.0643C3.08166 20.2622 2.79975 34.1727 19.6709 40.0001H20.2819C37.1999 34.2197 36.9179 20.2622 36.73 10.1113ZM19.9998 38.1203C6.27727 33.2328 5.05537 22.612 5.10241 13.213L26.5791 34.7367C24.5634 36.1805 22.3466 37.3205 19.9998 38.1203ZM28.0829 33.5618L5.14937 10.6282V10.1113C5.14937 9.35936 5.19632 8.56041 5.19632 7.85547C7.56951 7.78557 9.92344 7.40643 12.1986 6.72757L32.6884 27.2174C31.6263 29.6382 30.0554 31.8019 28.0829 33.5618ZM33.3934 25.2906L14.1254 6.02271C16.2892 5.1035 18.2769 3.81557 19.9998 2.21615C24.0414 5.88175 28.7879 7.66756 34.8032 7.85556C34.8032 8.60746 34.8501 9.35936 34.8501 10.1114C34.9442 14.9988 35.0381 20.4032 33.3934 25.2906Z" fill="#0044FF"/>
</g>
<defs>
<clipPath id="clip0">
<rect width="40" height="40" fill="white"/>
</clipPath>
</defs>
</svg>
