<svg width="40" height="40" viewBox="0 0 40 40" fill="none" xmlns="http://www.w3.org/2000/svg">
<g clip-path="url(#clip0)">
<path d="M31.6751 31.8903C31.3348 31.6301 30.8485 31.6954 30.5885 32.0355C30.3285 32.3756 30.3936 32.8621 30.7337 33.1221L32.0583 34.1345C32.1984 34.2415 32.364 34.2938 32.5287 34.2938C32.7407 34.2938 32.9512 34.2071 33.1035 34.039L35.6354 31.2433C35.9228 30.926 35.8986 30.4358 35.5813 30.1485C35.264 29.8611 34.7737 29.8854 34.4864 30.2026L32.4332 32.4698L31.6751 31.8903Z" fill="#0044FF"/>
<path d="M39.9054 27.7525C39.8965 27.3573 39.5917 27.0322 39.198 26.9978C37.354 26.8366 35.0849 25.5979 33.4168 23.8423C33.2705 23.6884 33.0675 23.6012 32.8551 23.6011C32.855 23.6011 32.8549 23.6011 32.8549 23.6011C32.6426 23.6011 32.4396 23.6881 32.2933 23.8419C31.5446 24.6289 30.6755 25.3116 29.7787 25.8403C28.205 24.0835 26.2681 22.7892 23.9979 21.9745C23.9781 21.9665 23.9581 21.9594 23.9377 21.953C23.7609 21.8904 23.582 21.8306 23.4011 21.7737C25.321 19.859 26.6124 17.3427 26.6124 15.0854V13.8676C27.5199 13.4724 28.1564 12.5666 28.1564 11.5145C28.1564 10.4217 27.4685 9.48692 26.5032 9.11911C26.1048 5.2511 23.3797 1.99955 19.6363 0.92381C19.5257 0.396948 19.0576 0 18.4984 0H15.6895C15.1502 0 14.6968 0.369586 14.5659 0.868542C12.7246 1.35959 11.0427 2.40773 9.78172 3.86499C8.50181 5.34411 7.7059 7.19127 7.50374 9.1195C6.538 9.48754 5.84991 10.422 5.84991 11.5146C5.84991 12.5671 6.4873 13.4731 7.39607 13.8681V15.0855C7.39607 17.3407 8.68769 19.8579 10.6075 21.7739C10.4319 21.8291 10.258 21.8869 10.0862 21.9475C10.0524 21.9571 10.0195 21.969 9.98752 21.983C7.44661 22.8996 5.32529 24.4169 3.66402 26.5121C2.0663 28.5273 0.930491 31.0159 0.288211 33.9093C0.0596229 34.9434 -0.112303 36.2428 0.592763 37.1207C1.28147 37.9783 2.51379 38.0882 3.51054 38.0882H8.58111C9.00921 38.0882 9.35624 37.7411 9.35624 37.3131C9.35624 36.885 9.00921 36.5379 8.58111 36.5379H3.51054C2.58324 36.5379 2.00824 36.4074 1.80151 36.15C1.58254 35.8773 1.58269 35.236 1.80175 34.2446C2.60735 30.616 4.57713 26.1756 9.32307 23.9337C9.17711 26.5524 10.596 28.264 11.4979 29.3504C11.6359 29.5167 11.8371 29.6178 12.053 29.6293C12.2687 29.6413 12.4797 29.5618 12.6347 29.4111L17.0032 25.1627L21.3738 29.4112C21.5189 29.5521 21.7128 29.6305 21.9141 29.6305C21.928 29.6305 21.9419 29.6301 21.9559 29.6293C22.1718 29.6177 22.3731 29.5164 22.511 29.3498C23.4117 28.2625 24.8285 26.5499 24.6838 23.9367C26.0607 24.5899 27.2772 25.4634 28.3233 26.5515C27.6987 26.7933 27.0844 26.9478 26.5117 26.9978C26.1182 27.0322 25.8135 27.357 25.8043 27.752C25.7394 30.5233 26.2013 32.5088 27.451 34.8328C27.4615 34.8525 27.8838 35.6095 28.5418 36.5381H15.5987C15.1706 36.5381 14.8235 36.8852 14.8235 37.3132C14.8235 37.7412 15.1706 38.0884 15.5987 38.0884H29.7729C30.7074 39.1211 31.8096 40.0002 32.8548 40.0002C35.3765 40.0002 38.2308 34.8845 38.2583 34.8333C39.5059 32.509 39.9677 30.5238 39.9054 27.7525ZM24.921 8.95176H20.6533C19.847 6.84548 19.6944 5.10863 19.6671 2.55896C22.4629 3.54781 24.4954 6.01476 24.921 8.95176ZM16.0767 1.55028H18.1111C18.116 4.55068 18.192 6.58278 19.0043 8.95176H15.185C15.9959 6.58271 16.0719 4.55037 16.0767 1.55028ZM14.5215 2.49781C14.496 5.08103 14.3477 6.82858 13.5365 8.95184H9.08704C9.52918 5.97662 11.6679 3.44278 14.5215 2.49781ZM8.41492 10.502H13.6004C13.6461 10.5391 13.6903 10.5438 13.7273 10.502H25.5935C26.1519 10.502 26.6061 10.9562 26.6061 11.5146C26.6061 12.0742 26.1519 12.5294 25.5935 12.5294H8.41492C7.85542 12.5294 7.40018 12.0742 7.40018 11.5146C7.40018 10.9563 7.85534 10.502 8.41492 10.502ZM8.94635 15.0855V14.0796H25.062V15.0855C25.062 18.0408 22.199 21.6958 18.935 22.9074C17.5068 23.4382 16.4929 23.4377 15.0613 22.9057C11.8038 21.6891 8.94635 18.0348 8.94635 15.0855ZM12.1633 27.7069C11.3611 26.6596 10.5886 25.2845 10.9598 23.2884C11.3018 23.178 11.6551 23.0773 12.0214 22.9883C12.8031 23.5617 13.6461 24.0321 14.5201 24.3585C14.8014 24.463 15.072 24.5491 15.3368 24.6207L12.1633 27.7069ZM21.8443 27.7065L18.6689 24.6198C18.9303 24.5489 19.1974 24.4638 19.4747 24.3607C20.3531 24.0347 21.2002 23.5634 21.9855 22.9881C22.3473 23.0762 22.7012 23.1759 23.0464 23.2877C23.4186 25.281 22.6464 26.6575 21.8443 27.7065ZM36.8921 34.1005C35.9754 35.8113 33.8287 38.4497 32.8548 38.4497C31.8809 38.4497 29.7342 35.8113 28.8169 34.0994C27.7926 32.1947 27.3722 30.6064 27.3494 28.4438C28.1857 28.2846 29.0562 27.9726 29.9123 27.5368C29.9424 27.5237 29.9717 27.5083 30.0004 27.491C31 26.9715 31.9776 26.2838 32.8545 25.4666C34.5054 27.0068 36.5152 28.093 38.3595 28.4438C38.3351 30.6068 37.9148 32.1954 36.8921 34.1005Z" fill="#0044FF"/>
<path d="M12.0901 36.5378C11.662 36.5378 11.315 36.8849 11.315 37.313C11.315 37.741 11.662 38.0881 12.0901 38.0881H12.0946C12.5227 38.0881 12.8674 37.741 12.8674 37.313C12.8674 36.8849 12.5182 36.5378 12.0901 36.5378Z" fill="#0044FF"/>
</g>
<defs>
<clipPath id="clip0">
<rect width="40" height="40" fill="white"/>
</clipPath>
</defs>
</svg>
