<svg width="209" height="47" viewBox="0 0 209 47" fill="none" xmlns="http://www.w3.org/2000/svg">
<path d="M59.3421 25.119H61.5272C62.2894 24.0688 62.8738 22.9678 63.2803 21.816C63.7038 20.6472 64.0087 19.4446 64.195 18.2081C64.3982 16.9546 64.5168 15.6673 64.5507 14.3461C64.5846 13.0079 64.6015 11.6359 64.6015 10.23H75.3998V25.119H78.0168V32.5381H74.9425V27.8376H62.4164V32.5381H59.3421V25.119ZM67.6759 12.9741C67.625 13.9904 67.5658 15.0321 67.498 16.0992C67.4302 17.1664 67.3032 18.225 67.1169 19.2752C66.9475 20.3085 66.7019 21.3248 66.3801 22.3241C66.0582 23.3066 65.6178 24.2382 65.0588 25.119H72.2493V12.9741H67.6759ZM80.5487 27.8376V10.23H83.7247V21.9176C84.3006 21.0029 84.9527 20.0205 85.6811 18.9703C86.4264 17.9032 87.1886 16.8445 87.9678 15.7943C88.7639 14.7441 89.5515 13.7363 90.3307 12.7708C91.1099 11.7884 91.8382 10.9414 92.5158 10.23H95.1328V27.8376H91.9822V15.2354C91.2708 16.0823 90.517 17.0393 89.7209 18.1064C88.9418 19.1566 88.1711 20.2492 87.4088 21.3841C86.6466 22.502 85.9098 23.6199 85.1983 24.7379C84.4869 25.8389 83.8432 26.8721 83.2673 27.8376H80.5487ZM110.206 10.23H113.407V27.8376H110.206V20.0374H102.558V27.8376H99.3565V10.23H102.558V17.268H110.206V10.23ZM129.306 27.8376C129.069 27.1432 128.823 26.4572 128.569 25.7796C128.315 25.1021 128.069 24.4076 127.832 23.6962H120.413C120.176 24.4076 119.93 25.1105 119.676 25.805C119.439 26.4826 119.202 27.1601 118.965 27.8376H115.637C116.297 25.9575 116.924 24.2213 117.517 22.629C118.11 21.0368 118.685 19.5293 119.244 18.1064C119.82 16.6836 120.388 15.3285 120.947 14.0412C121.506 12.7539 122.082 11.4835 122.675 10.23H125.698C126.291 11.4835 126.867 12.7539 127.426 14.0412C127.985 15.3285 128.544 16.6836 129.103 18.1064C129.679 19.5293 130.263 21.0368 130.856 22.629C131.466 24.2213 132.101 25.9575 132.761 27.8376H129.306ZM124.123 13.6347C123.733 14.5324 123.284 15.6249 122.776 16.9123C122.285 18.1996 121.768 19.597 121.226 21.1046H127.019C126.477 19.597 125.952 18.1911 125.444 16.8869C124.936 15.5826 124.495 14.4985 124.123 13.6347ZM138.824 10.23C139.196 10.8737 139.611 11.6613 140.069 12.5929C140.526 13.5246 140.992 14.507 141.466 15.5402C141.94 16.5566 142.406 17.5983 142.863 18.6654C143.338 19.7156 143.77 20.6896 144.159 21.5873C144.549 20.6896 144.972 19.7156 145.43 18.6654C145.887 17.5983 146.353 16.5566 146.827 15.5402C147.301 14.507 147.767 13.5246 148.224 12.5929C148.682 11.6613 149.097 10.8737 149.469 10.23H152.366C152.518 11.5173 152.662 12.8894 152.798 14.3461C152.933 15.7859 153.052 17.268 153.154 18.7925C153.272 20.3 153.374 21.8245 153.458 23.3659C153.56 24.8903 153.645 26.3809 153.713 27.8376H150.562C150.494 25.7881 150.41 23.6792 150.308 21.5111C150.223 19.343 150.088 17.2426 149.901 15.2099C149.715 15.5995 149.495 16.0653 149.241 16.6074C148.987 17.1494 148.716 17.7423 148.428 18.3859C148.14 19.0127 147.843 19.6648 147.538 20.3423C147.251 21.0199 146.963 21.6805 146.675 22.3241C146.404 22.9509 146.149 23.5437 145.912 24.1027C145.675 24.6447 145.472 25.1105 145.303 25.5001H142.914C142.745 25.1105 142.542 24.6363 142.304 24.0773C142.067 23.5183 141.805 22.9255 141.517 22.2987C141.246 21.6551 140.958 20.9945 140.653 20.3169C140.365 19.6394 140.077 18.9872 139.789 18.3605C139.501 17.7338 139.23 17.1494 138.976 16.6074C138.722 16.0484 138.502 15.5826 138.315 15.2099C138.129 17.2426 137.985 19.343 137.883 21.5111C137.799 23.6792 137.723 25.7881 137.655 27.8376H134.504C134.572 26.3809 134.648 24.8734 134.733 23.3151C134.835 21.7567 134.936 20.2153 135.038 18.6908C135.156 17.1494 135.283 15.6588 135.419 14.219C135.554 12.7793 135.698 11.4496 135.851 10.23H138.824ZM157.442 27.8376V10.23H160.618V21.9176C161.194 21.0029 161.846 20.0205 162.575 18.9703C163.32 17.9032 164.082 16.8445 164.861 15.7943C165.657 14.7441 166.445 13.7363 167.224 12.7708C168.003 11.7884 168.732 10.9414 169.409 10.23H172.026V27.8376H168.876V15.2354C168.164 16.0823 167.411 17.0393 166.614 18.1064C165.835 19.1566 165.065 20.2492 164.302 21.3841C163.54 22.502 162.803 23.6199 162.092 24.7379C161.38 25.8389 160.737 26.8721 160.161 27.8376H157.442ZM186.769 27.8376C186.328 27.1601 185.82 26.4487 185.244 25.7034C184.668 24.9581 184.059 24.2382 183.415 23.5437C182.788 22.8492 182.136 22.1886 181.459 21.5619C180.781 20.9352 180.112 20.3931 179.451 19.9358V27.8376H176.25V10.23H179.451V17.4967C180.01 16.9377 180.595 16.3448 181.204 15.7181C181.814 15.0744 182.416 14.4308 183.008 13.7871C183.618 13.1265 184.194 12.4913 184.736 11.8815C185.278 11.2717 185.769 10.7212 186.21 10.23H190.046C189.487 10.8737 188.895 11.5427 188.268 12.2372C187.641 12.9317 186.997 13.6347 186.337 14.3461C185.676 15.0406 185.007 15.735 184.33 16.4295C183.669 17.124 183.017 17.7846 182.373 18.4113C183.085 18.9534 183.805 19.5886 184.533 20.3169C185.278 21.0283 186.007 21.799 186.718 22.629C187.429 23.4421 188.107 24.2975 188.751 25.1952C189.411 26.076 190.013 26.9568 190.555 27.8376H186.769ZM205.257 27.8376C205.019 27.1432 204.774 26.4572 204.52 25.7796C204.266 25.1021 204.02 24.4076 203.783 23.6962H196.364C196.127 24.4076 195.881 25.1105 195.627 25.805C195.39 26.4826 195.153 27.1601 194.916 27.8376H191.587C192.248 25.9575 192.874 24.2213 193.467 22.629C194.06 21.0368 194.636 19.5293 195.195 18.1064C195.771 16.6836 196.338 15.3285 196.897 14.0412C197.456 12.7539 198.032 11.4835 198.625 10.23H201.649C202.241 11.4835 202.817 12.7539 203.376 14.0412C203.935 15.3285 204.494 16.6836 205.053 18.1064C205.629 19.5293 206.214 21.0368 206.806 22.629C207.416 24.2213 208.051 25.9575 208.712 27.8376H205.257ZM200.073 13.6347C199.684 14.5324 199.235 15.6249 198.727 16.9123C198.236 18.1996 197.719 19.597 197.177 21.1046H202.97C202.428 19.597 201.903 18.1911 201.395 16.8869C200.886 15.5826 200.446 14.4985 200.073 13.6347Z" fill="white"/>
<path fill-rule="evenodd" clip-rule="evenodd" d="M18.8428 1.07034C21.1032 -0.221362 23.8782 -0.221362 26.1387 1.07034L41.2767 9.72062C43.5676 11.0297 44.9815 13.466 44.9815 16.1046V33.3128C44.9815 35.9514 43.5676 38.3877 41.2767 39.6968L33.7277 44.0105L31.5819 40.2552L39.1308 35.9415C40.0742 35.4025 40.6563 34.3993 40.6563 33.3128V16.1046C40.6563 15.0181 40.0742 14.0149 39.1308 13.4759L23.9928 4.82561C23.0621 4.29373 21.9194 4.29373 20.9886 4.82561L5.85063 13.4759C4.90731 14.0149 4.32514 15.0181 4.32514 16.1046V33.3128C4.32514 34.3993 4.90731 35.4025 5.85063 35.9415L13.3996 40.2552L11.2537 44.0105L3.70476 39.6968C1.41383 38.3877 0 35.9514 0 33.3128V16.1046C0 13.466 1.41383 11.0297 3.70476 9.72062L18.8428 1.07034Z" fill="url(#paint0_linear)"/>
<path fill-rule="evenodd" clip-rule="evenodd" d="M18.8428 1.07034C21.1032 -0.221362 23.8782 -0.221362 26.1387 1.07034L41.2767 9.72062C43.5676 11.0297 44.9815 13.466 44.9815 16.1046V33.3128C44.9815 35.9514 43.5676 38.3877 41.2767 39.6968L33.7277 44.0105L31.5819 40.2552L39.1308 35.9415C40.0742 35.4025 40.6563 34.3993 40.6563 33.3128V16.1046C40.6563 15.0181 40.0742 14.0149 39.1308 13.4759L23.9928 4.82561C23.0621 4.29373 21.9194 4.29373 20.9886 4.82561L5.85063 13.4759C4.90731 14.0149 4.32514 15.0181 4.32514 16.1046V33.3128C4.32514 34.3993 4.90731 35.4025 5.85063 35.9415L13.3996 40.2552L11.2537 44.0105L3.70476 39.6968C1.41383 38.3877 0 35.9514 0 33.3128V16.1046C0 13.466 1.41383 11.0297 3.70476 9.72062L18.8428 1.07034Z" fill="white"/>
<path fill-rule="evenodd" clip-rule="evenodd" d="M8.42869 17.7662L20.2422 24.5389C22.9707 26.1032 24.6537 29.008 24.6537 32.1531V46.4582H20.3285V32.1531C20.3285 30.5579 19.4749 29.0846 18.091 28.2912L6.27753 21.5185L8.42869 17.7662Z" fill="#FF6B00"/>
<path fill-rule="evenodd" clip-rule="evenodd" d="M36.5536 17.7662L38.7048 21.5185L27.3513 28.0275L25.2001 24.2752L36.5536 17.7662Z" fill="#FF6B00"/>
<path d="M64.8613 36.3215V37.2165H62.5386V43.7053H61.505V37.2165H59.1823V36.3215H64.8613ZM69.3086 40.9457C69.3086 40.2993 69.1488 39.8021 68.8291 39.454C68.5095 39.106 68.0833 38.9319 67.5505 38.9319C67.2522 38.9319 67.0178 38.9426 66.8473 38.9639C66.6839 38.9852 66.5525 39.0101 66.4531 39.0385V42.5333C66.5738 42.6327 66.7478 42.7286 66.9752 42.821C67.2025 42.9133 67.4511 42.9595 67.721 42.9595C68.0051 42.9595 68.2466 42.9098 68.4455 42.8103C68.6515 42.7038 68.8185 42.5617 68.9463 42.3841C69.0742 42.1994 69.1665 41.9863 69.2233 41.7448C69.2802 41.4962 69.3086 41.2298 69.3086 40.9457ZM70.3421 40.9457C70.3421 41.3648 70.2853 41.7519 70.1716 42.1071C70.0651 42.4623 69.9053 42.7677 69.6922 43.0234C69.4791 43.2791 69.2162 43.478 68.9037 43.6201C68.5983 43.7621 68.2466 43.8332 67.8489 43.8332C67.5292 43.8332 67.2451 43.7906 66.9965 43.7053C66.755 43.6201 66.5738 43.5384 66.4531 43.4603V45.6765H65.4622V38.3353C65.6966 38.2784 65.9878 38.218 66.3359 38.1541C66.691 38.0831 67.0995 38.0476 67.5612 38.0476C67.9874 38.0476 68.3709 38.115 68.7119 38.25C69.0529 38.385 69.3441 38.5768 69.5856 38.8254C69.8271 39.074 70.0118 39.3794 70.1397 39.7417C70.2746 40.0969 70.3421 40.4982 70.3421 40.9457ZM70.9409 44.7388C71.019 44.7744 71.1184 44.8063 71.2392 44.8347C71.3671 44.8703 71.4914 44.888 71.6121 44.888C72.0028 44.888 72.3082 44.7992 72.5284 44.6216C72.7486 44.4512 72.9475 44.1706 73.1251 43.7799C72.6776 42.9275 72.2585 42.0254 71.8678 41.0736C71.4843 40.1146 71.1646 39.145 70.9089 38.1648H71.9744C72.0525 38.4844 72.1449 38.8289 72.2514 39.1983C72.3651 39.5677 72.4894 39.9477 72.6243 40.3384C72.7593 40.7291 72.9049 41.1197 73.0612 41.5104C73.2175 41.9011 73.3808 42.2776 73.5513 42.6398C73.8212 41.894 74.0556 41.1552 74.2545 40.4236C74.4534 39.692 74.6417 38.939 74.8192 38.1648H75.8421C75.5864 39.209 75.3023 40.2141 74.9897 41.1801C74.6772 42.1391 74.3398 43.0376 73.9775 43.8758C73.8354 44.1954 73.6863 44.4689 73.53 44.6962C73.3808 44.9306 73.2139 45.1224 73.0292 45.2716C72.8445 45.4208 72.635 45.5309 72.4006 45.6019C72.1733 45.6729 71.914 45.7084 71.6228 45.7084C71.5446 45.7084 71.4629 45.7013 71.3777 45.6871C71.2925 45.68 71.2072 45.6658 71.122 45.6445C71.0439 45.6303 70.9693 45.6125 70.8982 45.5912C70.8343 45.5699 70.7881 45.5522 70.7597 45.538L70.9409 44.7388ZM77.7821 38.8041C78.0023 38.6265 78.258 38.4915 78.5492 38.3992C78.8475 38.2997 79.1317 38.25 79.4016 38.25C80.1972 38.25 80.7974 38.4951 81.2023 38.9852C81.6143 39.4682 81.8203 40.143 81.8203 41.0096C81.8203 41.379 81.7705 41.7342 81.6711 42.0751C81.5716 42.4161 81.4154 42.718 81.2023 42.9808C80.9963 43.2436 80.7335 43.4532 80.4138 43.6094C80.0942 43.7657 79.7141 43.8438 79.2737 43.8438C78.7694 43.8438 78.3503 43.7515 78.0165 43.5668C77.6826 43.3821 77.4162 43.13 77.2173 42.8103C77.0256 42.4907 76.8906 42.1177 76.8125 41.6915C76.7343 41.2653 76.6953 40.8143 76.6953 40.3384C76.6953 39.7204 76.7379 39.145 76.8231 38.6123C76.9155 38.0795 77.0788 37.6107 77.3132 37.2058C77.5476 36.8009 77.8708 36.4671 78.2828 36.2043C78.7019 35.9343 79.2382 35.7532 79.8917 35.6609C80.0835 35.6325 80.2504 35.6111 80.3925 35.5969C80.5417 35.5756 80.6695 35.5579 80.7761 35.5437C80.8897 35.5295 80.9927 35.5153 81.0851 35.501C81.1774 35.4797 81.2733 35.4584 81.3728 35.4371L81.4793 36.3321C81.4296 36.3463 81.3763 36.357 81.3195 36.3641C81.2698 36.3712 81.1952 36.3819 81.0957 36.3961C81.0034 36.4103 80.8755 36.428 80.7122 36.4493C80.5559 36.4706 80.3499 36.4955 80.0942 36.5239C79.3909 36.6021 78.8511 36.8152 78.4746 37.1632C78.0982 37.5113 77.8673 38.0582 77.7821 38.8041ZM77.7181 40.4982C77.7181 40.8321 77.7394 41.1481 77.7821 41.4465C77.8318 41.7448 77.9135 42.0076 78.0271 42.2349C78.1479 42.4623 78.3077 42.6434 78.5066 42.7783C78.7055 42.9062 78.9612 42.9701 79.2737 42.9701C79.5437 42.9701 79.7745 42.9204 79.9663 42.821C80.1581 42.7144 80.3144 42.5724 80.4351 42.3948C80.5559 42.2172 80.6447 42.0112 80.7015 41.7768C80.7583 41.5353 80.7867 41.2796 80.7867 41.0096C80.7867 40.7681 80.7619 40.5337 80.7122 40.3064C80.6695 40.0791 80.5878 39.8767 80.4671 39.6991C80.3463 39.5215 80.183 39.3794 79.977 39.2729C79.7781 39.1663 79.5259 39.1131 79.2205 39.1131C78.9221 39.1131 78.6344 39.177 78.3574 39.3048C78.0875 39.4327 77.8779 39.589 77.7288 39.7737C77.7217 39.8518 77.7181 39.9619 77.7181 40.104C77.7181 40.246 77.7181 40.3774 77.7181 40.4982ZM88.1144 40.935C88.1144 41.3755 88.0505 41.7732 87.9226 42.1284C87.7948 42.4836 87.6136 42.789 87.3792 43.0447C87.1519 43.3004 86.8784 43.4993 86.5588 43.6414C86.2391 43.7764 85.8911 43.8438 85.5146 43.8438C85.1381 43.8438 84.7901 43.7764 84.4704 43.6414C84.1508 43.4993 83.8737 43.3004 83.6393 43.0447C83.412 42.789 83.2345 42.4836 83.1066 42.1284C82.9787 41.7732 82.9148 41.3755 82.9148 40.935C82.9148 40.5017 82.9787 40.1075 83.1066 39.7524C83.2345 39.3901 83.412 39.0811 83.6393 38.8254C83.8737 38.5697 84.1508 38.3743 84.4704 38.2394C84.7901 38.0973 85.1381 38.0263 85.5146 38.0263C85.8911 38.0263 86.2391 38.0973 86.5588 38.2394C86.8784 38.3743 87.1519 38.5697 87.3792 38.8254C87.6136 39.0811 87.7948 39.3901 87.9226 39.7524C88.0505 40.1075 88.1144 40.5017 88.1144 40.935ZM87.0809 40.935C87.0809 40.31 86.9388 39.8163 86.6547 39.454C86.3776 39.0846 85.9976 38.9 85.5146 38.9C85.0316 38.9 84.648 39.0846 84.3639 39.454C84.0868 39.8163 83.9483 40.31 83.9483 40.935C83.9483 41.5601 84.0868 42.0574 84.3639 42.4267C84.648 42.789 85.0316 42.9701 85.5146 42.9701C85.9976 42.9701 86.3776 42.789 86.6547 42.4267C86.9388 42.0574 87.0809 41.5601 87.0809 40.935ZM93.9623 43.7053H92.9714V38.9959H90.4994V43.7053H89.5085V38.1648H93.9623V43.7053ZM99.5148 40.9457C99.5148 40.2993 99.355 39.8021 99.0353 39.454C98.7157 39.106 98.2895 38.9319 97.7568 38.9319C97.4584 38.9319 97.224 38.9426 97.0535 38.9639C96.8902 38.9852 96.7587 39.0101 96.6593 39.0385V42.5333C96.7801 42.6327 96.9541 42.7286 97.1814 42.821C97.4087 42.9133 97.6573 42.9595 97.9272 42.9595C98.2114 42.9595 98.4529 42.9098 98.6518 42.8103C98.8578 42.7038 99.0247 42.5617 99.1525 42.3841C99.2804 42.1994 99.3727 41.9863 99.4296 41.7448C99.4864 41.4962 99.5148 41.2298 99.5148 40.9457ZM100.548 40.9457C100.548 41.3648 100.492 41.7519 100.378 42.1071C100.271 42.4623 100.111 42.7677 99.8984 43.0234C99.6853 43.2791 99.4225 43.478 99.1099 43.6201C98.8045 43.7621 98.4529 43.8332 98.0551 43.8332C97.7354 43.8332 97.4513 43.7906 97.2027 43.7053C96.9612 43.6201 96.7801 43.5384 96.6593 43.4603V45.6765H95.6684V38.3353C95.9028 38.2784 96.194 38.218 96.5421 38.1541C96.8973 38.0831 97.3057 38.0476 97.7674 38.0476C98.1936 38.0476 98.5772 38.115 98.9181 38.25C99.2591 38.385 99.5503 38.5768 99.7918 38.8254C100.033 39.074 100.218 39.3794 100.346 39.7417C100.481 40.0969 100.548 40.4982 100.548 40.9457ZM106.833 40.935C106.833 41.3755 106.769 41.7732 106.642 42.1284C106.514 42.4836 106.333 42.789 106.098 43.0447C105.871 43.3004 105.597 43.4993 105.278 43.6414C104.958 43.7764 104.61 43.8438 104.234 43.8438C103.857 43.8438 103.509 43.7764 103.189 43.6414C102.87 43.4993 102.593 43.3004 102.358 43.0447C102.131 42.789 101.953 42.4836 101.826 42.1284C101.698 41.7732 101.634 41.3755 101.634 40.935C101.634 40.5017 101.698 40.1075 101.826 39.7524C101.953 39.3901 102.131 39.0811 102.358 38.8254C102.593 38.5697 102.87 38.3743 103.189 38.2394C103.509 38.0973 103.857 38.0263 104.234 38.0263C104.61 38.0263 104.958 38.0973 105.278 38.2394C105.597 38.3743 105.871 38.5697 106.098 38.8254C106.333 39.0811 106.514 39.3901 106.642 39.7524C106.769 40.1075 106.833 40.5017 106.833 40.935ZM105.8 40.935C105.8 40.31 105.658 39.8163 105.374 39.454C105.097 39.0846 104.717 38.9 104.234 38.9C103.75 38.9 103.367 39.0846 103.083 39.454C102.806 39.8163 102.667 40.31 102.667 40.935C102.667 41.5601 102.806 42.0574 103.083 42.4267C103.367 42.789 103.75 42.9701 104.234 42.9701C104.717 42.9701 105.097 42.789 105.374 42.4267C105.658 42.0574 105.8 41.5601 105.8 40.935ZM109.197 42.9595C109.24 42.9666 109.3 42.9737 109.378 42.9808C109.456 42.9879 109.545 42.995 109.645 43.0021C109.744 43.0021 109.847 43.0057 109.954 43.0128C110.067 43.0128 110.174 43.0128 110.273 43.0128C110.479 43.0128 110.675 42.9985 110.859 42.9701C111.051 42.9417 111.214 42.892 111.349 42.821C111.491 42.7499 111.601 42.6576 111.68 42.5439C111.765 42.4232 111.807 42.2705 111.807 42.0858C111.807 41.9082 111.768 41.7626 111.69 41.6489C111.619 41.5282 111.52 41.4323 111.392 41.3612C111.264 41.2902 111.111 41.2405 110.934 41.2121C110.763 41.1837 110.579 41.1695 110.38 41.1695H109.197V42.9595ZM110.252 40.4343C110.444 40.4343 110.618 40.4236 110.774 40.4023C110.937 40.3739 111.076 40.3277 111.19 40.2638C111.31 40.1999 111.403 40.1146 111.467 40.0081C111.538 39.9015 111.573 39.7666 111.573 39.6032C111.573 39.4327 111.53 39.2977 111.445 39.1983C111.36 39.0989 111.246 39.0243 111.104 38.9745C110.969 38.9177 110.813 38.8822 110.635 38.868C110.465 38.8467 110.291 38.836 110.113 38.836C109.95 38.836 109.783 38.8396 109.613 38.8467C109.449 38.8538 109.311 38.8609 109.197 38.868V40.4343H110.252ZM110.231 43.8012C109.811 43.8012 109.424 43.7799 109.069 43.7373C108.714 43.7018 108.433 43.6592 108.227 43.6094V38.218C108.433 38.1683 108.714 38.1257 109.069 38.0902C109.424 38.0476 109.811 38.0263 110.231 38.0263C110.522 38.0263 110.806 38.0511 111.083 38.1008C111.36 38.1506 111.605 38.2358 111.818 38.3566C112.031 38.4702 112.202 38.63 112.33 38.836C112.465 39.0349 112.532 39.2835 112.532 39.5819C112.532 39.8518 112.465 40.0827 112.33 40.2744C112.195 40.4662 112.013 40.6154 111.786 40.7219C112.092 40.8285 112.333 40.9883 112.511 41.2014C112.695 41.4074 112.788 41.6986 112.788 42.0751C112.788 42.409 112.72 42.686 112.585 42.9062C112.457 43.1264 112.276 43.304 112.042 43.4389C111.815 43.5739 111.545 43.6663 111.232 43.716C110.92 43.7728 110.586 43.8012 110.231 43.8012ZM118.955 40.935C118.955 41.3755 118.891 41.7732 118.764 42.1284C118.636 42.4836 118.455 42.789 118.22 43.0447C117.993 43.3004 117.719 43.4993 117.4 43.6414C117.08 43.7764 116.732 43.8438 116.356 43.8438C115.979 43.8438 115.631 43.7764 115.311 43.6414C114.992 43.4993 114.715 43.3004 114.48 43.0447C114.253 42.789 114.075 42.4836 113.948 42.1284C113.82 41.7732 113.756 41.3755 113.756 40.935C113.756 40.5017 113.82 40.1075 113.948 39.7524C114.075 39.3901 114.253 39.0811 114.48 38.8254C114.715 38.5697 114.992 38.3743 115.311 38.2394C115.631 38.0973 115.979 38.0263 116.356 38.0263C116.732 38.0263 117.08 38.0973 117.4 38.2394C117.719 38.3743 117.993 38.5697 118.22 38.8254C118.455 39.0811 118.636 39.3901 118.764 39.7524C118.891 40.1075 118.955 40.5017 118.955 40.935ZM117.922 40.935C117.922 40.31 117.78 39.8163 117.496 39.454C117.219 39.0846 116.839 38.9 116.356 38.9C115.873 38.9 115.489 39.0846 115.205 39.454C114.928 39.8163 114.789 40.31 114.789 40.935C114.789 41.5601 114.928 42.0574 115.205 42.4267C115.489 42.789 115.873 42.9701 116.356 42.9701C116.839 42.9701 117.219 42.789 117.496 42.4267C117.78 42.0574 117.922 41.5601 117.922 40.935ZM119.668 42.8955H120.264C120.499 42.5546 120.683 42.203 120.818 41.8407C120.96 41.4784 121.067 41.1055 121.138 40.7219C121.209 40.3313 121.255 39.9264 121.276 39.5073C121.298 39.0811 121.312 38.6336 121.319 38.1648H124.952V42.8955H125.698V45.2503H124.761V43.7053H120.605V45.2503H119.668V42.8955ZM123.961 42.8955V38.9959H122.225C122.218 39.3297 122.2 39.6671 122.171 40.0081C122.143 40.3419 122.097 40.6758 122.033 41.0096C121.969 41.3364 121.877 41.6596 121.756 41.9792C121.642 42.2918 121.497 42.5972 121.319 42.8955H123.961ZM131.308 43.7053H130.318V41.2547H127.76V43.7053H126.769V38.1648H127.76V40.4236H130.318V38.1648H131.308V43.7053ZM134.888 42.9914C135.122 42.9914 135.328 42.9879 135.506 42.9808C135.691 42.9666 135.843 42.9453 135.964 42.9169V41.2653C135.893 41.2298 135.776 41.2014 135.612 41.1801C135.456 41.1517 135.264 41.1375 135.037 41.1375C134.888 41.1375 134.728 41.1481 134.558 41.1695C134.394 41.1908 134.241 41.2369 134.099 41.308C133.964 41.3719 133.851 41.4642 133.758 41.585C133.666 41.6986 133.62 41.8514 133.62 42.0432C133.62 42.3983 133.734 42.6469 133.961 42.789C134.188 42.924 134.497 42.9914 134.888 42.9914ZM134.803 38.0263C135.2 38.0263 135.534 38.0795 135.804 38.1861C136.081 38.2855 136.301 38.4311 136.465 38.6229C136.635 38.8076 136.756 39.0314 136.827 39.2942C136.898 39.5499 136.934 39.834 136.934 40.1466V43.6094C136.848 43.6236 136.728 43.6449 136.571 43.6734C136.422 43.6947 136.252 43.716 136.06 43.7373C135.868 43.7586 135.659 43.7764 135.431 43.7906C135.211 43.8119 134.991 43.8225 134.771 43.8225C134.458 43.8225 134.17 43.7906 133.908 43.7266C133.645 43.6627 133.417 43.5633 133.226 43.4283C133.034 43.2862 132.885 43.1015 132.778 42.8742C132.672 42.6469 132.618 42.3735 132.618 42.0538C132.618 41.7484 132.679 41.4856 132.799 41.2653C132.927 41.0451 133.098 40.8676 133.311 40.7326C133.524 40.5976 133.773 40.4982 134.057 40.4343C134.341 40.3703 134.639 40.3384 134.952 40.3384C135.051 40.3384 135.154 40.3455 135.261 40.3597C135.367 40.3668 135.467 40.381 135.559 40.4023C135.659 40.4165 135.744 40.4307 135.815 40.4449C135.886 40.4591 135.936 40.4698 135.964 40.4769V40.1999C135.964 40.0365 135.946 39.8767 135.911 39.7204C135.875 39.557 135.811 39.4149 135.719 39.2942C135.627 39.1663 135.499 39.0669 135.335 38.9959C135.179 38.9177 134.973 38.8787 134.717 38.8787C134.391 38.8787 134.103 38.9035 133.854 38.9532C133.613 38.9959 133.432 39.042 133.311 39.0917L133.194 38.2713C133.322 38.2145 133.535 38.1612 133.833 38.1115C134.131 38.0547 134.455 38.0263 134.803 38.0263ZM140.87 41.553C140.764 41.553 140.661 41.553 140.561 41.553C140.462 41.5459 140.366 41.5388 140.273 41.5317C140.046 41.8727 139.826 42.2385 139.613 42.6292C139.407 43.0128 139.222 43.3715 139.059 43.7053H138.057C138.142 43.4993 138.242 43.2898 138.356 43.0767C138.469 42.8565 138.583 42.6434 138.697 42.4374C138.817 42.2314 138.938 42.0361 139.059 41.8514C139.18 41.6667 139.293 41.4998 139.4 41.3506C139.201 41.2796 139.038 41.1943 138.91 41.0949C138.782 40.9883 138.679 40.8711 138.601 40.7433C138.523 40.6154 138.466 40.4804 138.43 40.3384C138.402 40.1892 138.388 40.04 138.388 39.8909C138.388 39.5783 138.444 39.3048 138.558 39.0704C138.679 38.836 138.842 38.6442 139.048 38.4951C139.254 38.3388 139.496 38.2216 139.773 38.1435C140.057 38.0653 140.366 38.0263 140.7 38.0263C141.168 38.0263 141.566 38.0476 141.893 38.0902C142.22 38.1328 142.493 38.1825 142.713 38.2394V43.7053H141.733V41.553H140.87ZM141.733 38.9C141.655 38.8858 141.524 38.8715 141.339 38.8573C141.161 38.8431 140.955 38.836 140.721 38.836C140.316 38.836 139.989 38.9213 139.741 39.0917C139.492 39.2551 139.368 39.5179 139.368 39.8802C139.368 40.2354 139.496 40.4804 139.751 40.6154C140.007 40.7504 140.337 40.8178 140.742 40.8178H141.733V38.9ZM148.758 42.9914C148.992 42.9914 149.198 42.9879 149.376 42.9808C149.561 42.9666 149.713 42.9453 149.834 42.9169V41.2653C149.763 41.2298 149.646 41.2014 149.482 41.1801C149.326 41.1517 149.134 41.1375 148.907 41.1375C148.758 41.1375 148.598 41.1481 148.428 41.1695C148.264 41.1908 148.112 41.2369 147.969 41.308C147.835 41.3719 147.721 41.4642 147.629 41.585C147.536 41.6986 147.49 41.8514 147.49 42.0432C147.49 42.3983 147.604 42.6469 147.831 42.789C148.058 42.924 148.367 42.9914 148.758 42.9914ZM148.673 38.0263C149.07 38.0263 149.404 38.0795 149.674 38.1861C149.951 38.2855 150.171 38.4311 150.335 38.6229C150.505 38.8076 150.626 39.0314 150.697 39.2942C150.768 39.5499 150.804 39.834 150.804 40.1466V43.6094C150.718 43.6236 150.598 43.6449 150.441 43.6734C150.292 43.6947 150.122 43.716 149.93 43.7373C149.738 43.7586 149.529 43.7764 149.301 43.7906C149.081 43.8119 148.861 43.8225 148.641 43.8225C148.328 43.8225 148.041 43.7906 147.778 43.7266C147.515 43.6627 147.288 43.5633 147.096 43.4283C146.904 43.2862 146.755 43.1015 146.648 42.8742C146.542 42.6469 146.488 42.3735 146.488 42.0538C146.488 41.7484 146.549 41.4856 146.67 41.2653C146.797 41.0451 146.968 40.8676 147.181 40.7326C147.394 40.5976 147.643 40.4982 147.927 40.4343C148.211 40.3703 148.509 40.3384 148.822 40.3384C148.921 40.3384 149.024 40.3455 149.131 40.3597C149.237 40.3668 149.337 40.381 149.429 40.4023C149.529 40.4165 149.614 40.4307 149.685 40.4449C149.756 40.4591 149.806 40.4698 149.834 40.4769V40.1999C149.834 40.0365 149.816 39.8767 149.781 39.7204C149.745 39.557 149.681 39.4149 149.589 39.2942C149.497 39.1663 149.369 39.0669 149.205 38.9959C149.049 38.9177 148.843 38.8787 148.587 38.8787C148.261 38.8787 147.973 38.9035 147.724 38.9532C147.483 38.9959 147.302 39.042 147.181 39.0917L147.064 38.2713C147.192 38.2145 147.405 38.1612 147.703 38.1115C148.001 38.0547 148.325 38.0263 148.673 38.0263ZM156.296 40.9457C156.296 40.2993 156.136 39.8021 155.816 39.454C155.497 39.106 155.071 38.9319 154.538 38.9319C154.239 38.9319 154.005 38.9426 153.835 38.9639C153.671 38.9852 153.54 39.0101 153.44 39.0385V42.5333C153.561 42.6327 153.735 42.7286 153.962 42.821C154.19 42.9133 154.438 42.9595 154.708 42.9595C154.992 42.9595 155.234 42.9098 155.433 42.8103C155.639 42.7038 155.806 42.5617 155.934 42.3841C156.061 42.1994 156.154 41.9863 156.211 41.7448C156.267 41.4962 156.296 41.2298 156.296 40.9457ZM157.329 40.9457C157.329 41.3648 157.273 41.7519 157.159 42.1071C157.052 42.4623 156.893 42.7677 156.679 43.0234C156.466 43.2791 156.204 43.478 155.891 43.6201C155.586 43.7621 155.234 43.8332 154.836 43.8332C154.516 43.8332 154.232 43.7906 153.984 43.7053C153.742 43.6201 153.561 43.5384 153.44 43.4603V45.6765H152.449V38.3353C152.684 38.2784 152.975 38.218 153.323 38.1541C153.678 38.0831 154.087 38.0476 154.548 38.0476C154.975 38.0476 155.358 38.115 155.699 38.25C156.04 38.385 156.331 38.5768 156.573 38.8254C156.814 39.074 156.999 39.3794 157.127 39.7417C157.262 40.0969 157.329 40.4982 157.329 40.9457ZM159.779 39.6245C159.708 40.3277 159.654 41.0309 159.619 41.7342C159.583 42.4303 159.555 43.0873 159.534 43.7053H158.585C158.599 43.272 158.621 42.821 158.649 42.3521C158.678 41.8762 158.71 41.4003 158.745 40.9244C158.781 40.4414 158.82 39.969 158.862 39.5073C158.905 39.0385 158.951 38.591 159.001 38.1648H159.906C160.134 38.5341 160.4 39.042 160.706 39.6884C161.011 40.3277 161.363 41.0665 161.76 41.9046C162.158 41.0665 162.51 40.3277 162.815 39.6884C163.121 39.042 163.387 38.5341 163.614 38.1648H164.531C164.58 38.591 164.627 39.0385 164.669 39.5073C164.712 39.969 164.751 40.4414 164.786 40.9244C164.822 41.4003 164.854 41.8762 164.882 42.3521C164.911 42.821 164.932 43.272 164.946 43.7053H163.966C163.945 43.0873 163.916 42.4303 163.881 41.7342C163.845 41.0309 163.792 40.3277 163.721 39.6245C163.607 39.8447 163.476 40.1111 163.327 40.4236C163.178 40.7291 163.028 41.0416 162.879 41.3612C162.737 41.6809 162.602 41.9863 162.474 42.2776C162.346 42.5688 162.247 42.7997 162.176 42.9701H161.345C161.267 42.7926 161.16 42.5581 161.025 42.2669C160.897 41.9757 160.759 41.6702 160.61 41.3506C160.468 41.0238 160.322 40.7077 160.173 40.4023C160.024 40.0898 159.892 39.8305 159.779 39.6245ZM168.393 42.9914C168.627 42.9914 168.833 42.9879 169.01 42.9808C169.195 42.9666 169.348 42.9453 169.469 42.9169V41.2653C169.398 41.2298 169.28 41.2014 169.117 41.1801C168.961 41.1517 168.769 41.1375 168.542 41.1375C168.393 41.1375 168.233 41.1481 168.062 41.1695C167.899 41.1908 167.746 41.2369 167.604 41.308C167.469 41.3719 167.355 41.4642 167.263 41.585C167.171 41.6986 167.125 41.8514 167.125 42.0432C167.125 42.3983 167.238 42.6469 167.466 42.789C167.693 42.924 168.002 42.9914 168.393 42.9914ZM168.307 38.0263C168.705 38.0263 169.039 38.0795 169.309 38.1861C169.586 38.2855 169.806 38.4311 169.969 38.6229C170.14 38.8076 170.261 39.0314 170.332 39.2942C170.403 39.5499 170.438 39.834 170.438 40.1466V43.6094C170.353 43.6236 170.232 43.6449 170.076 43.6734C169.927 43.6947 169.756 43.716 169.565 43.7373C169.373 43.7586 169.163 43.7764 168.936 43.7906C168.716 43.8119 168.496 43.8225 168.275 43.8225C167.963 43.8225 167.675 43.7906 167.412 43.7266C167.149 43.6627 166.922 43.5633 166.73 43.4283C166.539 43.2862 166.389 43.1015 166.283 42.8742C166.176 42.6469 166.123 42.3735 166.123 42.0538C166.123 41.7484 166.183 41.4856 166.304 41.2653C166.432 41.0451 166.602 40.8676 166.816 40.7326C167.029 40.5976 167.277 40.4982 167.561 40.4343C167.846 40.3703 168.144 40.3384 168.456 40.3384C168.556 40.3384 168.659 40.3455 168.765 40.3597C168.872 40.3668 168.971 40.381 169.064 40.4023C169.163 40.4165 169.248 40.4307 169.319 40.4449C169.391 40.4591 169.44 40.4698 169.469 40.4769V40.1999C169.469 40.0365 169.451 39.8767 169.415 39.7204C169.38 39.557 169.316 39.4149 169.224 39.2942C169.131 39.1663 169.003 39.0669 168.84 38.9959C168.684 38.9177 168.478 38.8787 168.222 38.8787C167.895 38.8787 167.608 38.9035 167.359 38.9532C167.117 38.9959 166.936 39.042 166.816 39.0917L166.698 38.2713C166.826 38.2145 167.039 38.1612 167.338 38.1115C167.636 38.0547 167.959 38.0263 168.307 38.0263ZM175.994 38.1648V38.9959H174.194V43.7053H173.203V38.9959H171.402V38.1648H175.994ZM176.605 44.7388C176.684 44.7744 176.783 44.8063 176.904 44.8347C177.032 44.8703 177.156 44.888 177.277 44.888C177.667 44.888 177.973 44.7992 178.193 44.6216C178.413 44.4512 178.612 44.1706 178.79 43.7799C178.342 42.9275 177.923 42.0254 177.532 41.0736C177.149 40.1146 176.829 39.145 176.573 38.1648H177.639C177.717 38.4844 177.809 38.8289 177.916 39.1983C178.03 39.5677 178.154 39.9477 178.289 40.3384C178.424 40.7291 178.569 41.1197 178.726 41.5104C178.882 41.9011 179.045 42.2776 179.216 42.6398C179.486 41.894 179.72 41.1552 179.919 40.4236C180.118 39.692 180.306 38.939 180.484 38.1648H181.507C181.251 39.209 180.967 40.2141 180.654 41.1801C180.342 42.1391 180.004 43.0376 179.642 43.8758C179.5 44.1954 179.351 44.4689 179.195 44.6962C179.045 44.9306 178.878 45.1224 178.694 45.2716C178.509 45.4208 178.3 45.5309 178.065 45.6019C177.838 45.6729 177.579 45.7084 177.287 45.7084C177.209 45.7084 177.128 45.7013 177.042 45.6871C176.957 45.68 176.872 45.6658 176.787 45.6445C176.708 45.6303 176.634 45.6125 176.563 45.5912C176.499 45.5699 176.453 45.5522 176.424 45.538L176.605 44.7388ZM186.398 40.9457C186.398 40.2993 186.238 39.8021 185.919 39.454C185.599 39.106 185.173 38.9319 184.64 38.9319C184.342 38.9319 184.107 38.9426 183.937 38.9639C183.773 38.9852 183.642 39.0101 183.543 39.0385V42.5333C183.663 42.6327 183.837 42.7286 184.065 42.821C184.292 42.9133 184.541 42.9595 184.81 42.9595C185.095 42.9595 185.336 42.9098 185.535 42.8103C185.741 42.7038 185.908 42.5617 186.036 42.3841C186.164 42.1994 186.256 41.9863 186.313 41.7448C186.37 41.4962 186.398 41.2298 186.398 40.9457ZM187.432 40.9457C187.432 41.3648 187.375 41.7519 187.261 42.1071C187.155 42.4623 186.995 42.7677 186.782 43.0234C186.569 43.2791 186.306 43.478 185.993 43.6201C185.688 43.7621 185.336 43.8332 184.938 43.8332C184.619 43.8332 184.335 43.7906 184.086 43.7053C183.844 43.6201 183.663 43.5384 183.543 43.4603V45.6765H182.552V38.3353C182.786 38.2784 183.077 38.218 183.425 38.1541C183.78 38.0831 184.189 38.0476 184.651 38.0476C185.077 38.0476 185.46 38.115 185.801 38.25C186.142 38.385 186.434 38.5768 186.675 38.8254C186.917 39.074 187.101 39.3794 187.229 39.7417C187.364 40.0969 187.432 40.4982 187.432 40.9457ZM190.701 42.9914C190.936 42.9914 191.142 42.9879 191.319 42.9808C191.504 42.9666 191.657 42.9453 191.777 42.9169V41.2653C191.706 41.2298 191.589 41.2014 191.426 41.1801C191.269 41.1517 191.078 41.1375 190.85 41.1375C190.701 41.1375 190.541 41.1481 190.371 41.1695C190.208 41.1908 190.055 41.2369 189.913 41.308C189.778 41.3719 189.664 41.4642 189.572 41.585C189.479 41.6986 189.433 41.8514 189.433 42.0432C189.433 42.3983 189.547 42.6469 189.774 42.789C190.002 42.924 190.311 42.9914 190.701 42.9914ZM190.616 38.0263C191.014 38.0263 191.348 38.0795 191.618 38.1861C191.895 38.2855 192.115 38.4311 192.278 38.6229C192.449 38.8076 192.569 39.0314 192.64 39.2942C192.711 39.5499 192.747 39.834 192.747 40.1466V43.6094C192.662 43.6236 192.541 43.6449 192.385 43.6734C192.236 43.6947 192.065 43.716 191.873 43.7373C191.681 43.7586 191.472 43.7764 191.245 43.7906C191.024 43.8119 190.804 43.8225 190.584 43.8225C190.271 43.8225 189.984 43.7906 189.721 43.7266C189.458 43.6627 189.231 43.5633 189.039 43.4283C188.847 43.2862 188.698 43.1015 188.592 42.8742C188.485 42.6469 188.432 42.3735 188.432 42.0538C188.432 41.7484 188.492 41.4856 188.613 41.2653C188.741 41.0451 188.911 40.8676 189.124 40.7326C189.337 40.5976 189.586 40.4982 189.87 40.4343C190.154 40.3703 190.453 40.3384 190.765 40.3384C190.865 40.3384 190.968 40.3455 191.074 40.3597C191.181 40.3668 191.28 40.381 191.372 40.4023C191.472 40.4165 191.557 40.4307 191.628 40.4449C191.699 40.4591 191.749 40.4698 191.777 40.4769V40.1999C191.777 40.0365 191.76 39.8767 191.724 39.7204C191.689 39.557 191.625 39.4149 191.532 39.2942C191.44 39.1663 191.312 39.0669 191.149 38.9959C190.992 38.9177 190.786 38.8787 190.531 38.8787C190.204 38.8787 189.916 38.9035 189.668 38.9532C189.426 38.9959 189.245 39.042 189.124 39.0917L189.007 38.2713C189.135 38.2145 189.348 38.1612 189.646 38.1115C189.945 38.0547 190.268 38.0263 190.616 38.0263Z" fill="white"/>
<defs>
<linearGradient id="paint0_linear" x1="22.4907" y1="0.101562" x2="22.4907" y2="44.0105" gradientUnits="userSpaceOnUse">
<stop stop-color="#0074FF"/>
<stop offset="1" stop-color="#00408C"/>
</linearGradient>
</defs>
</svg>
