<svg width="255" height="57" viewBox="0 0 255 57" fill="none" xmlns="http://www.w3.org/2000/svg">
<path d="M72.403 30.683H75.069C75.999 29.4017 76.712 28.0583 77.208 26.653C77.7247 25.227 78.0967 23.7597 78.324 22.251C78.572 20.7217 78.7167 19.151 78.758 17.539C78.7993 15.9063 78.82 14.2323 78.82 12.517H91.995V30.683H95.188V39.735H91.437V34H76.154V39.735H72.403V30.683ZM82.571 15.865C82.509 17.105 82.4367 18.376 82.354 19.678C82.2713 20.98 82.1163 22.2717 81.889 23.553C81.6823 24.8137 81.3827 26.0537 80.99 27.273C80.5973 28.4717 80.06 29.6083 79.378 30.683H88.151V15.865H82.571ZM98.2771 34V12.517H102.152V26.777C102.855 25.661 103.65 24.4623 104.539 23.181C105.448 21.879 106.378 20.5873 107.329 19.306C108.3 18.0247 109.261 16.795 110.212 15.617C111.163 14.4183 112.051 13.385 112.878 12.517H116.071V34H112.227V18.624C111.359 19.6573 110.439 20.825 109.468 22.127C108.517 23.4083 107.577 24.7413 106.647 26.126C105.717 27.49 104.818 28.854 103.95 30.218C103.082 31.5613 102.297 32.822 101.594 34H98.2771ZM134.461 12.517H138.367V34H134.461V24.483H125.13V34H121.224V12.517H125.13V21.104H134.461V12.517ZM157.766 34C157.476 33.1527 157.177 32.3157 156.867 31.489C156.557 30.6623 156.257 29.815 155.968 28.947H146.916C146.626 29.815 146.327 30.6727 146.017 31.52C145.727 32.3467 145.438 33.1733 145.149 34H141.088C141.894 31.706 142.658 29.5877 143.382 27.645C144.105 25.7023 144.808 23.863 145.49 22.127C146.192 20.391 146.885 18.7377 147.567 17.167C148.249 15.5963 148.951 14.0463 149.675 12.517H153.364C154.087 14.0463 154.79 15.5963 155.472 17.167C156.154 18.7377 156.836 20.391 157.518 22.127C158.22 23.863 158.933 25.7023 159.657 27.645C160.401 29.5877 161.176 31.706 161.982 34H157.766ZM151.442 16.671C150.966 17.7663 150.419 19.0993 149.799 20.67C149.199 22.2407 148.569 23.9457 147.908 25.785H154.976C154.314 23.9457 153.674 22.2303 153.054 20.639C152.434 19.0477 151.896 17.725 151.442 16.671ZM169.378 12.517C169.833 13.3023 170.339 14.2633 170.897 15.4C171.455 16.5367 172.023 17.7353 172.602 18.996C173.181 20.236 173.749 21.507 174.307 22.809C174.886 24.0903 175.413 25.2787 175.888 26.374C176.363 25.2787 176.88 24.0903 177.438 22.809C177.996 21.507 178.564 20.236 179.143 18.996C179.722 17.7353 180.29 16.5367 180.848 15.4C181.406 14.2633 181.912 13.3023 182.367 12.517H185.901C186.087 14.0877 186.263 15.7617 186.428 17.539C186.593 19.2957 186.738 21.104 186.862 22.964C187.007 24.8033 187.131 26.6633 187.234 28.544C187.358 30.404 187.461 32.2227 187.544 34H183.7C183.617 31.4993 183.514 28.9263 183.39 26.281C183.287 23.6357 183.121 21.073 182.894 18.593C182.667 19.0683 182.398 19.6367 182.088 20.298C181.778 20.9593 181.447 21.6827 181.096 22.468C180.745 23.2327 180.383 24.0283 180.011 24.855C179.66 25.6817 179.308 26.4877 178.957 27.273C178.626 28.0377 178.316 28.761 178.027 29.443C177.738 30.1043 177.49 30.6727 177.283 31.148H174.369C174.162 30.6727 173.914 30.094 173.625 29.412C173.336 28.73 173.015 28.0067 172.664 27.242C172.333 26.4567 171.982 25.6507 171.61 24.824C171.259 23.9973 170.907 23.2017 170.556 22.437C170.205 21.6723 169.874 20.9593 169.564 20.298C169.254 19.616 168.985 19.0477 168.758 18.593C168.531 21.073 168.355 23.6357 168.231 26.281C168.128 28.9263 168.035 31.4993 167.952 34H164.108C164.191 32.2227 164.284 30.3833 164.387 28.482C164.511 26.5807 164.635 24.7 164.759 22.84C164.904 20.9593 165.059 19.1407 165.224 17.384C165.389 15.6273 165.565 14.005 165.751 12.517H169.378ZM192.094 34V12.517H195.969V26.777C196.672 25.661 197.468 24.4623 198.356 23.181C199.266 21.879 200.196 20.5873 201.146 19.306C202.118 18.0247 203.079 16.795 204.029 15.617C204.98 14.4183 205.869 13.385 206.695 12.517H209.888V34H206.044V18.624C205.176 19.6573 204.257 20.825 203.285 22.127C202.335 23.4083 201.394 24.7413 200.464 26.126C199.534 27.49 198.635 28.854 197.767 30.218C196.899 31.5613 196.114 32.822 195.411 34H192.094ZM227.876 34C227.338 33.1733 226.718 32.3053 226.016 31.396C225.313 30.4867 224.569 29.6083 223.784 28.761C223.019 27.9137 222.223 27.1077 221.397 26.343C220.57 25.5783 219.754 24.917 218.948 24.359V34H215.042V12.517H218.948V21.383C219.63 20.701 220.343 19.9777 221.087 19.213C221.831 18.4277 222.564 17.6423 223.288 16.857C224.032 16.051 224.734 15.276 225.396 14.532C226.057 13.788 226.656 13.1163 227.194 12.517H231.875C231.193 13.3023 230.469 14.1187 229.705 14.966C228.94 15.8133 228.155 16.671 227.349 17.539C226.543 18.3863 225.726 19.2337 224.9 20.081C224.094 20.9283 223.298 21.7343 222.513 22.499C223.381 23.1603 224.259 23.9353 225.148 24.824C226.057 25.692 226.946 26.6323 227.814 27.645C228.682 28.637 229.508 29.6807 230.294 30.776C231.1 31.8507 231.833 32.9253 232.495 34H227.876ZM250.433 34C250.143 33.1527 249.844 32.3157 249.534 31.489C249.224 30.6623 248.924 29.815 248.635 28.947H239.583C239.293 29.815 238.994 30.6727 238.684 31.52C238.394 32.3467 238.105 33.1733 237.816 34H233.755C234.561 31.706 235.325 29.5877 236.049 27.645C236.772 25.7023 237.475 23.863 238.157 22.127C238.859 20.391 239.552 18.7377 240.234 17.167C240.916 15.5963 241.618 14.0463 242.342 12.517H246.031C246.754 14.0463 247.457 15.5963 248.139 17.167C248.821 18.7377 249.503 20.391 250.185 22.127C250.887 23.863 251.6 25.7023 252.324 27.645C253.068 29.5877 253.843 31.706 254.649 34H250.433ZM244.109 16.671C243.633 17.7663 243.086 19.0993 242.466 20.67C241.866 22.2407 241.236 23.9457 240.575 25.785H247.643C246.981 23.9457 246.341 22.2303 245.721 20.639C245.101 19.0477 244.563 17.725 244.109 16.671Z" fill="#00408C"/>
<path fill-rule="evenodd" clip-rule="evenodd" d="M22.99 1.62291C25.748 0.0469189 29.1337 0.0469194 31.8917 1.62291L50.3615 12.1771C53.1567 13.7743 54.8817 16.7468 54.8817 19.9661V40.9618C54.8817 44.1811 53.1567 47.1537 50.3615 48.7509L41.1511 54.014L38.5329 49.4322L47.7434 44.1691C48.8943 43.5114 49.6046 42.2874 49.6046 40.9618V19.9661C49.6046 18.6405 48.8943 17.4166 47.7434 16.7589L29.2736 6.20471C28.1379 5.55577 26.7438 5.55577 25.6081 6.20471L7.13833 16.7589C5.98738 17.4166 5.27709 18.6405 5.27709 19.9661V40.9618C5.27709 42.2874 5.98738 43.5114 7.13833 44.1691L16.3488 49.4322L13.7306 54.014L4.52016 48.7509C1.72501 47.1537 0 44.1812 0 40.9618V19.9661C0 16.7468 1.72501 13.7743 4.52016 12.1771L22.99 1.62291Z" fill="url(#paint0_linear)"/>
<path fill-rule="evenodd" clip-rule="evenodd" d="M10.2839 21.9933L24.6975 30.2566C28.0266 32.1652 30.08 35.7093 30.08 39.5467V57.0003H24.8029V39.5467C24.8029 37.6003 23.7614 35.8027 22.0729 34.8347L7.6593 26.5714L10.2839 21.9933Z" fill="#FF6B00"/>
<path fill-rule="evenodd" clip-rule="evenodd" d="M44.5989 21.9933L47.2236 26.5714L33.3712 34.513L30.7466 29.9349L44.5989 21.9933Z" fill="#FF6B00"/>
<path d="M79.137 44.991V46.083H76.303V54H75.042V46.083H72.208V44.991H79.137ZM84.5631 50.633C84.5631 49.8443 84.3681 49.2377 83.9781 48.813C83.5881 48.3883 83.0681 48.176 82.4181 48.176C82.0541 48.176 81.7681 48.189 81.5601 48.215C81.3607 48.241 81.2004 48.2713 81.0791 48.306V52.57C81.2264 52.6913 81.4387 52.8083 81.7161 52.921C81.9934 53.0337 82.2967 53.09 82.6261 53.09C82.9727 53.09 83.2674 53.0293 83.5101 52.908C83.7614 52.778 83.9651 52.6047 84.1211 52.388C84.2771 52.1627 84.3897 51.9027 84.4591 51.608C84.5284 51.3047 84.5631 50.9797 84.5631 50.633ZM85.8241 50.633C85.8241 51.1443 85.7547 51.6167 85.6161 52.05C85.4861 52.4833 85.2911 52.856 85.0311 53.168C84.7711 53.48 84.4504 53.7227 84.0691 53.896C83.6964 54.0693 83.2674 54.156 82.7821 54.156C82.3921 54.156 82.0454 54.104 81.7421 54C81.4474 53.896 81.2264 53.7963 81.0791 53.701V56.405H79.8701V47.448C80.1561 47.3787 80.5114 47.305 80.9361 47.227C81.3694 47.1403 81.8677 47.097 82.4311 47.097C82.9511 47.097 83.4191 47.1793 83.8351 47.344C84.2511 47.5087 84.6064 47.7427 84.9011 48.046C85.1957 48.3493 85.4211 48.722 85.5771 49.164C85.7417 49.5973 85.8241 50.087 85.8241 50.633ZM86.5546 55.261C86.65 55.3043 86.7713 55.3433 86.9186 55.378C87.0746 55.4213 87.2263 55.443 87.3736 55.443C87.8503 55.443 88.223 55.3347 88.4916 55.118C88.7603 54.91 89.003 54.5677 89.2196 54.091C88.6736 53.051 88.1623 51.9503 87.6856 50.789C87.2176 49.619 86.8276 48.436 86.5156 47.24H87.8156C87.911 47.63 88.0236 48.0503 88.1536 48.501C88.2923 48.9517 88.444 49.4153 88.6086 49.892C88.7733 50.3687 88.951 50.8453 89.1416 51.322C89.3323 51.7987 89.5316 52.258 89.7396 52.7C90.069 51.79 90.355 50.8887 90.5976 49.996C90.8403 49.1033 91.07 48.1847 91.2866 47.24H92.5346C92.2226 48.514 91.876 49.7403 91.4946 50.919C91.1133 52.089 90.7016 53.1853 90.2596 54.208C90.0863 54.598 89.9043 54.9317 89.7136 55.209C89.5316 55.495 89.328 55.729 89.1026 55.911C88.8773 56.093 88.6216 56.2273 88.3356 56.314C88.0583 56.4007 87.742 56.444 87.3866 56.444C87.2913 56.444 87.1916 56.4353 87.0876 56.418C86.9836 56.4093 86.8796 56.392 86.7756 56.366C86.6803 56.3487 86.5893 56.327 86.5026 56.301C86.4246 56.275 86.3683 56.2533 86.3336 56.236L86.5546 55.261ZM94.9015 48.02C95.1702 47.8033 95.4822 47.6387 95.8375 47.526C96.2015 47.4047 96.5482 47.344 96.8775 47.344C97.8482 47.344 98.5805 47.643 99.0745 48.241C99.5772 48.8303 99.8285 49.6537 99.8285 50.711C99.8285 51.1617 99.7679 51.595 99.6465 52.011C99.5252 52.427 99.3345 52.7953 99.0745 53.116C98.8232 53.4367 98.5025 53.6923 98.1125 53.883C97.7225 54.0737 97.2589 54.169 96.7215 54.169C96.1062 54.169 95.5949 54.0563 95.1875 53.831C94.7802 53.6057 94.4552 53.298 94.2125 52.908C93.9785 52.518 93.8139 52.063 93.7185 51.543C93.6232 51.023 93.5755 50.4727 93.5755 49.892C93.5755 49.138 93.6275 48.436 93.7315 47.786C93.8442 47.136 94.0435 46.564 94.3295 46.07C94.6155 45.576 95.0099 45.1687 95.5125 44.848C96.0239 44.5187 96.6782 44.2977 97.4755 44.185C97.7095 44.1503 97.9132 44.1243 98.0865 44.107C98.2685 44.081 98.4245 44.0593 98.5545 44.042C98.6932 44.0247 98.8189 44.0073 98.9315 43.99C99.0442 43.964 99.1612 43.938 99.2825 43.912L99.4125 45.004C99.3519 45.0213 99.2869 45.0343 99.2175 45.043C99.1569 45.0517 99.0659 45.0647 98.9445 45.082C98.8319 45.0993 98.6759 45.121 98.4765 45.147C98.2859 45.173 98.0345 45.2033 97.7225 45.238C96.8645 45.3333 96.2059 45.5933 95.7465 46.018C95.2872 46.4427 95.0055 47.11 94.9015 48.02ZM94.8235 50.087C94.8235 50.4943 94.8495 50.88 94.9015 51.244C94.9622 51.608 95.0619 51.9287 95.2005 52.206C95.3479 52.4833 95.5429 52.7043 95.7855 52.869C96.0282 53.025 96.3402 53.103 96.7215 53.103C97.0509 53.103 97.3325 53.0423 97.5665 52.921C97.8005 52.791 97.9912 52.6177 98.1385 52.401C98.2859 52.1843 98.3942 51.933 98.4635 51.647C98.5329 51.3523 98.5675 51.0403 98.5675 50.711C98.5675 50.4163 98.5372 50.1303 98.4765 49.853C98.4245 49.5757 98.3249 49.3287 98.1775 49.112C98.0302 48.8953 97.8309 48.722 97.5795 48.592C97.3369 48.462 97.0292 48.397 96.6565 48.397C96.2925 48.397 95.9415 48.475 95.6035 48.631C95.2742 48.787 95.0185 48.9777 94.8365 49.203C94.8279 49.2983 94.8235 49.4327 94.8235 49.606C94.8235 49.7793 94.8235 49.9397 94.8235 50.087ZM107.508 50.62C107.508 51.1573 107.43 51.6427 107.274 52.076C107.118 52.5093 106.897 52.882 106.611 53.194C106.334 53.506 106 53.7487 105.61 53.922C105.22 54.0867 104.795 54.169 104.336 54.169C103.877 54.169 103.452 54.0867 103.062 53.922C102.672 53.7487 102.334 53.506 102.048 53.194C101.771 52.882 101.554 52.5093 101.398 52.076C101.242 51.6427 101.164 51.1573 101.164 50.62C101.164 50.0913 101.242 49.6103 101.398 49.177C101.554 48.735 101.771 48.358 102.048 48.046C102.334 47.734 102.672 47.4957 103.062 47.331C103.452 47.1577 103.877 47.071 104.336 47.071C104.795 47.071 105.22 47.1577 105.61 47.331C106 47.4957 106.334 47.734 106.611 48.046C106.897 48.358 107.118 48.735 107.274 49.177C107.43 49.6103 107.508 50.0913 107.508 50.62ZM106.247 50.62C106.247 49.8573 106.074 49.255 105.727 48.813C105.389 48.3623 104.925 48.137 104.336 48.137C103.747 48.137 103.279 48.3623 102.932 48.813C102.594 49.255 102.425 49.8573 102.425 50.62C102.425 51.3827 102.594 51.9893 102.932 52.44C103.279 52.882 103.747 53.103 104.336 53.103C104.925 53.103 105.389 52.882 105.727 52.44C106.074 51.9893 106.247 51.3827 106.247 50.62ZM114.643 54H113.434V48.254H110.418V54H109.209V47.24H114.643V54ZM121.418 50.633C121.418 49.8443 121.223 49.2377 120.833 48.813C120.443 48.3883 119.923 48.176 119.273 48.176C118.909 48.176 118.623 48.189 118.415 48.215C118.215 48.241 118.055 48.2713 117.934 48.306V52.57C118.081 52.6913 118.293 52.8083 118.571 52.921C118.848 53.0337 119.151 53.09 119.481 53.09C119.827 53.09 120.122 53.0293 120.365 52.908C120.616 52.778 120.82 52.6047 120.976 52.388C121.132 52.1627 121.244 51.9027 121.314 51.608C121.383 51.3047 121.418 50.9797 121.418 50.633ZM122.679 50.633C122.679 51.1443 122.609 51.6167 122.471 52.05C122.341 52.4833 122.146 52.856 121.886 53.168C121.626 53.48 121.305 53.7227 120.924 53.896C120.551 54.0693 120.122 54.156 119.637 54.156C119.247 54.156 118.9 54.104 118.597 54C118.302 53.896 118.081 53.7963 117.934 53.701V56.405H116.725V47.448C117.011 47.3787 117.366 47.305 117.791 47.227C118.224 47.1403 118.722 47.097 119.286 47.097C119.806 47.097 120.274 47.1793 120.69 47.344C121.106 47.5087 121.461 47.7427 121.756 48.046C122.05 48.3493 122.276 48.722 122.432 49.164C122.596 49.5973 122.679 50.087 122.679 50.633ZM130.347 50.62C130.347 51.1573 130.269 51.6427 130.113 52.076C129.957 52.5093 129.736 52.882 129.45 53.194C129.173 53.506 128.839 53.7487 128.449 53.922C128.059 54.0867 127.634 54.169 127.175 54.169C126.716 54.169 126.291 54.0867 125.901 53.922C125.511 53.7487 125.173 53.506 124.887 53.194C124.61 52.882 124.393 52.5093 124.237 52.076C124.081 51.6427 124.003 51.1573 124.003 50.62C124.003 50.0913 124.081 49.6103 124.237 49.177C124.393 48.735 124.61 48.358 124.887 48.046C125.173 47.734 125.511 47.4957 125.901 47.331C126.291 47.1577 126.716 47.071 127.175 47.071C127.634 47.071 128.059 47.1577 128.449 47.331C128.839 47.4957 129.173 47.734 129.45 48.046C129.736 48.358 129.957 48.735 130.113 49.177C130.269 49.6103 130.347 50.0913 130.347 50.62ZM129.086 50.62C129.086 49.8573 128.913 49.255 128.566 48.813C128.228 48.3623 127.764 48.137 127.175 48.137C126.586 48.137 126.118 48.3623 125.771 48.813C125.433 49.255 125.264 49.8573 125.264 50.62C125.264 51.3827 125.433 51.9893 125.771 52.44C126.118 52.882 126.586 53.103 127.175 53.103C127.764 53.103 128.228 52.882 128.566 52.44C128.913 51.9893 129.086 51.3827 129.086 50.62ZM133.231 53.09C133.283 53.0987 133.356 53.1073 133.452 53.116C133.547 53.1247 133.655 53.1333 133.777 53.142C133.898 53.142 134.024 53.1463 134.154 53.155C134.292 53.155 134.422 53.155 134.544 53.155C134.795 53.155 135.033 53.1377 135.259 53.103C135.493 53.0683 135.692 53.0077 135.857 52.921C136.03 52.8343 136.164 52.7217 136.26 52.583C136.364 52.4357 136.416 52.2493 136.416 52.024C136.416 51.8073 136.368 51.6297 136.273 51.491C136.186 51.3437 136.065 51.2267 135.909 51.14C135.753 51.0533 135.566 50.9927 135.35 50.958C135.142 50.9233 134.916 50.906 134.674 50.906H133.231V53.09ZM134.518 50.009C134.752 50.009 134.964 49.996 135.155 49.97C135.354 49.9353 135.523 49.879 135.662 49.801C135.809 49.723 135.922 49.619 136 49.489C136.086 49.359 136.13 49.1943 136.13 48.995C136.13 48.787 136.078 48.6223 135.974 48.501C135.87 48.3797 135.731 48.2887 135.558 48.228C135.393 48.1587 135.202 48.1153 134.986 48.098C134.778 48.072 134.565 48.059 134.349 48.059C134.149 48.059 133.946 48.0633 133.738 48.072C133.538 48.0807 133.369 48.0893 133.231 48.098V50.009H134.518ZM134.492 54.117C133.98 54.117 133.508 54.091 133.075 54.039C132.641 53.9957 132.299 53.9437 132.048 53.883V47.305C132.299 47.2443 132.641 47.1923 133.075 47.149C133.508 47.097 133.98 47.071 134.492 47.071C134.847 47.071 135.194 47.1013 135.532 47.162C135.87 47.2227 136.169 47.3267 136.429 47.474C136.689 47.6127 136.897 47.8077 137.053 48.059C137.217 48.3017 137.3 48.605 137.3 48.969C137.3 49.2983 137.217 49.58 137.053 49.814C136.888 50.048 136.667 50.23 136.39 50.36C136.762 50.49 137.057 50.685 137.274 50.945C137.499 51.1963 137.612 51.5517 137.612 52.011C137.612 52.4183 137.529 52.7563 137.365 53.025C137.209 53.2937 136.988 53.5103 136.702 53.675C136.424 53.8397 136.095 53.9523 135.714 54.013C135.332 54.0823 134.925 54.117 134.492 54.117ZM145.137 50.62C145.137 51.1573 145.059 51.6427 144.903 52.076C144.747 52.5093 144.526 52.882 144.24 53.194C143.963 53.506 143.629 53.7487 143.239 53.922C142.849 54.0867 142.424 54.169 141.965 54.169C141.506 54.169 141.081 54.0867 140.691 53.922C140.301 53.7487 139.963 53.506 139.677 53.194C139.4 52.882 139.183 52.5093 139.027 52.076C138.871 51.6427 138.793 51.1573 138.793 50.62C138.793 50.0913 138.871 49.6103 139.027 49.177C139.183 48.735 139.4 48.358 139.677 48.046C139.963 47.734 140.301 47.4957 140.691 47.331C141.081 47.1577 141.506 47.071 141.965 47.071C142.424 47.071 142.849 47.1577 143.239 47.331C143.629 47.4957 143.963 47.734 144.24 48.046C144.526 48.358 144.747 48.735 144.903 49.177C145.059 49.6103 145.137 50.0913 145.137 50.62ZM143.876 50.62C143.876 49.8573 143.703 49.255 143.356 48.813C143.018 48.3623 142.554 48.137 141.965 48.137C141.376 48.137 140.908 48.3623 140.561 48.813C140.223 49.255 140.054 49.8573 140.054 50.62C140.054 51.3827 140.223 51.9893 140.561 52.44C140.908 52.882 141.376 53.103 141.965 53.103C142.554 53.103 143.018 52.882 143.356 52.44C143.703 51.9893 143.876 51.3827 143.876 50.62ZM146.006 53.012H146.734C147.02 52.596 147.245 52.167 147.41 51.725C147.583 51.283 147.713 50.828 147.8 50.36C147.887 49.8833 147.943 49.3893 147.969 48.878C147.995 48.358 148.012 47.812 148.021 47.24H152.454V53.012H153.364V55.885H152.22V54H147.15V55.885H146.006V53.012ZM151.245 53.012V48.254H149.126C149.117 48.6613 149.096 49.073 149.061 49.489C149.026 49.8963 148.97 50.3037 148.892 50.711C148.814 51.1097 148.701 51.504 148.554 51.894C148.415 52.2753 148.238 52.648 148.021 53.012H151.245ZM160.209 54H159V51.01H155.88V54H154.671V47.24H155.88V49.996H159V47.24H160.209V54ZM164.576 53.129C164.862 53.129 165.113 53.1247 165.33 53.116C165.555 53.0987 165.742 53.0727 165.889 53.038V51.023C165.802 50.9797 165.659 50.945 165.46 50.919C165.269 50.8843 165.035 50.867 164.758 50.867C164.576 50.867 164.381 50.88 164.173 50.906C163.974 50.932 163.787 50.9883 163.614 51.075C163.449 51.153 163.311 51.2657 163.198 51.413C163.085 51.5517 163.029 51.738 163.029 51.972C163.029 52.4053 163.168 52.7087 163.445 52.882C163.722 53.0467 164.099 53.129 164.576 53.129ZM164.472 47.071C164.957 47.071 165.365 47.136 165.694 47.266C166.032 47.3873 166.301 47.565 166.5 47.799C166.708 48.0243 166.855 48.2973 166.942 48.618C167.029 48.93 167.072 49.2767 167.072 49.658V53.883C166.968 53.9003 166.821 53.9263 166.63 53.961C166.448 53.987 166.24 54.013 166.006 54.039C165.772 54.065 165.516 54.0867 165.239 54.104C164.97 54.13 164.702 54.143 164.433 54.143C164.052 54.143 163.701 54.104 163.38 54.026C163.059 53.948 162.782 53.8267 162.548 53.662C162.314 53.4887 162.132 53.2633 162.002 52.986C161.872 52.7087 161.807 52.375 161.807 51.985C161.807 51.6123 161.881 51.2917 162.028 51.023C162.184 50.7543 162.392 50.5377 162.652 50.373C162.912 50.2083 163.215 50.087 163.562 50.009C163.909 49.931 164.273 49.892 164.654 49.892C164.775 49.892 164.901 49.9007 165.031 49.918C165.161 49.9267 165.282 49.944 165.395 49.97C165.516 49.9873 165.62 50.0047 165.707 50.022C165.794 50.0393 165.854 50.0523 165.889 50.061V49.723C165.889 49.5237 165.867 49.3287 165.824 49.138C165.781 48.9387 165.703 48.7653 165.59 48.618C165.477 48.462 165.321 48.3407 165.122 48.254C164.931 48.1587 164.68 48.111 164.368 48.111C163.969 48.111 163.618 48.1413 163.315 48.202C163.02 48.254 162.799 48.3103 162.652 48.371L162.509 47.37C162.665 47.3007 162.925 47.2357 163.289 47.175C163.653 47.1057 164.047 47.071 164.472 47.071ZM171.875 51.374C171.745 51.374 171.619 51.374 171.498 51.374C171.377 51.3653 171.26 51.3567 171.147 51.348C170.87 51.764 170.601 52.2103 170.341 52.687C170.09 53.155 169.864 53.5927 169.665 54H168.443C168.547 53.7487 168.668 53.493 168.807 53.233C168.946 52.9643 169.084 52.7043 169.223 52.453C169.37 52.2017 169.518 51.9633 169.665 51.738C169.812 51.5127 169.951 51.309 170.081 51.127C169.838 51.0403 169.639 50.9363 169.483 50.815C169.327 50.685 169.201 50.542 169.106 50.386C169.011 50.23 168.941 50.0653 168.898 49.892C168.863 49.71 168.846 49.528 168.846 49.346C168.846 48.9647 168.915 48.631 169.054 48.345C169.201 48.059 169.401 47.825 169.652 47.643C169.903 47.4523 170.198 47.3093 170.536 47.214C170.883 47.1187 171.26 47.071 171.667 47.071C172.239 47.071 172.724 47.097 173.123 47.149C173.522 47.201 173.855 47.2617 174.124 47.331V54H172.928V51.374H171.875ZM172.928 48.137C172.833 48.1197 172.672 48.1023 172.447 48.085C172.23 48.0677 171.979 48.059 171.693 48.059C171.199 48.059 170.8 48.163 170.497 48.371C170.194 48.5703 170.042 48.891 170.042 49.333C170.042 49.7663 170.198 50.0653 170.51 50.23C170.822 50.3947 171.225 50.477 171.719 50.477H172.928V48.137ZM181.499 53.129C181.785 53.129 182.036 53.1247 182.253 53.116C182.478 53.0987 182.665 53.0727 182.812 53.038V51.023C182.725 50.9797 182.582 50.945 182.383 50.919C182.192 50.8843 181.958 50.867 181.681 50.867C181.499 50.867 181.304 50.88 181.096 50.906C180.897 50.932 180.71 50.9883 180.537 51.075C180.372 51.153 180.234 51.2657 180.121 51.413C180.008 51.5517 179.952 51.738 179.952 51.972C179.952 52.4053 180.091 52.7087 180.368 52.882C180.645 53.0467 181.022 53.129 181.499 53.129ZM181.395 47.071C181.88 47.071 182.288 47.136 182.617 47.266C182.955 47.3873 183.224 47.565 183.423 47.799C183.631 48.0243 183.778 48.2973 183.865 48.618C183.952 48.93 183.995 49.2767 183.995 49.658V53.883C183.891 53.9003 183.744 53.9263 183.553 53.961C183.371 53.987 183.163 54.013 182.929 54.039C182.695 54.065 182.439 54.0867 182.162 54.104C181.893 54.13 181.625 54.143 181.356 54.143C180.975 54.143 180.624 54.104 180.303 54.026C179.982 53.948 179.705 53.8267 179.471 53.662C179.237 53.4887 179.055 53.2633 178.925 52.986C178.795 52.7087 178.73 52.375 178.73 51.985C178.73 51.6123 178.804 51.2917 178.951 51.023C179.107 50.7543 179.315 50.5377 179.575 50.373C179.835 50.2083 180.138 50.087 180.485 50.009C180.832 49.931 181.196 49.892 181.577 49.892C181.698 49.892 181.824 49.9007 181.954 49.918C182.084 49.9267 182.205 49.944 182.318 49.97C182.439 49.9873 182.543 50.0047 182.63 50.022C182.717 50.0393 182.777 50.0523 182.812 50.061V49.723C182.812 49.5237 182.79 49.3287 182.747 49.138C182.704 48.9387 182.626 48.7653 182.513 48.618C182.4 48.462 182.244 48.3407 182.045 48.254C181.854 48.1587 181.603 48.111 181.291 48.111C180.892 48.111 180.541 48.1413 180.238 48.202C179.943 48.254 179.722 48.3103 179.575 48.371L179.432 47.37C179.588 47.3007 179.848 47.2357 180.212 47.175C180.576 47.1057 180.97 47.071 181.395 47.071ZM190.696 50.633C190.696 49.8443 190.501 49.2377 190.111 48.813C189.721 48.3883 189.201 48.176 188.551 48.176C188.187 48.176 187.901 48.189 187.693 48.215C187.494 48.241 187.333 48.2713 187.212 48.306V52.57C187.359 52.6913 187.572 52.8083 187.849 52.921C188.126 53.0337 188.43 53.09 188.759 53.09C189.106 53.09 189.4 53.0293 189.643 52.908C189.894 52.778 190.098 52.6047 190.254 52.388C190.41 52.1627 190.523 51.9027 190.592 51.608C190.661 51.3047 190.696 50.9797 190.696 50.633ZM191.957 50.633C191.957 51.1443 191.888 51.6167 191.749 52.05C191.619 52.4833 191.424 52.856 191.164 53.168C190.904 53.48 190.583 53.7227 190.202 53.896C189.829 54.0693 189.4 54.156 188.915 54.156C188.525 54.156 188.178 54.104 187.875 54C187.58 53.896 187.359 53.7963 187.212 53.701V56.405H186.003V47.448C186.289 47.3787 186.644 47.305 187.069 47.227C187.502 47.1403 188.001 47.097 188.564 47.097C189.084 47.097 189.552 47.1793 189.968 47.344C190.384 47.5087 190.739 47.7427 191.034 48.046C191.329 48.3493 191.554 48.722 191.71 49.164C191.875 49.5973 191.957 50.087 191.957 50.633ZM194.945 49.021C194.858 49.879 194.793 50.737 194.75 51.595C194.707 52.4443 194.672 53.246 194.646 54H193.489C193.506 53.4713 193.532 52.921 193.567 52.349C193.602 51.7683 193.641 51.1877 193.684 50.607C193.727 50.0177 193.775 49.4413 193.827 48.878C193.879 48.306 193.935 47.76 193.996 47.24H195.101C195.378 47.6907 195.703 48.3103 196.076 49.099C196.449 49.879 196.878 50.7803 197.363 51.803C197.848 50.7803 198.277 49.879 198.65 49.099C199.023 48.3103 199.348 47.6907 199.625 47.24H200.743C200.804 47.76 200.86 48.306 200.912 48.878C200.964 49.4413 201.012 50.0177 201.055 50.607C201.098 51.1877 201.137 51.7683 201.172 52.349C201.207 52.921 201.233 53.4713 201.25 54H200.054C200.028 53.246 199.993 52.4443 199.95 51.595C199.907 50.737 199.842 49.879 199.755 49.021C199.616 49.2897 199.456 49.6147 199.274 49.996C199.092 50.3687 198.91 50.75 198.728 51.14C198.555 51.53 198.39 51.9027 198.234 52.258C198.078 52.6133 197.957 52.895 197.87 53.103H196.856C196.761 52.8863 196.631 52.6003 196.466 52.245C196.31 51.8897 196.141 51.517 195.959 51.127C195.786 50.7283 195.608 50.3427 195.426 49.97C195.244 49.5887 195.084 49.2723 194.945 49.021ZM205.455 53.129C205.741 53.129 205.992 53.1247 206.209 53.116C206.434 53.0987 206.621 53.0727 206.768 53.038V51.023C206.681 50.9797 206.538 50.945 206.339 50.919C206.148 50.8843 205.914 50.867 205.637 50.867C205.455 50.867 205.26 50.88 205.052 50.906C204.853 50.932 204.666 50.9883 204.493 51.075C204.328 51.153 204.19 51.2657 204.077 51.413C203.964 51.5517 203.908 51.738 203.908 51.972C203.908 52.4053 204.047 52.7087 204.324 52.882C204.601 53.0467 204.978 53.129 205.455 53.129ZM205.351 47.071C205.836 47.071 206.244 47.136 206.573 47.266C206.911 47.3873 207.18 47.565 207.379 47.799C207.587 48.0243 207.734 48.2973 207.821 48.618C207.908 48.93 207.951 49.2767 207.951 49.658V53.883C207.847 53.9003 207.7 53.9263 207.509 53.961C207.327 53.987 207.119 54.013 206.885 54.039C206.651 54.065 206.395 54.0867 206.118 54.104C205.849 54.13 205.581 54.143 205.312 54.143C204.931 54.143 204.58 54.104 204.259 54.026C203.938 53.948 203.661 53.8267 203.427 53.662C203.193 53.4887 203.011 53.2633 202.881 52.986C202.751 52.7087 202.686 52.375 202.686 51.985C202.686 51.6123 202.76 51.2917 202.907 51.023C203.063 50.7543 203.271 50.5377 203.531 50.373C203.791 50.2083 204.094 50.087 204.441 50.009C204.788 49.931 205.152 49.892 205.533 49.892C205.654 49.892 205.78 49.9007 205.91 49.918C206.04 49.9267 206.161 49.944 206.274 49.97C206.395 49.9873 206.499 50.0047 206.586 50.022C206.673 50.0393 206.733 50.0523 206.768 50.061V49.723C206.768 49.5237 206.746 49.3287 206.703 49.138C206.66 48.9387 206.582 48.7653 206.469 48.618C206.356 48.462 206.2 48.3407 206.001 48.254C205.81 48.1587 205.559 48.111 205.247 48.111C204.848 48.111 204.497 48.1413 204.194 48.202C203.899 48.254 203.678 48.3103 203.531 48.371L203.388 47.37C203.544 47.3007 203.804 47.2357 204.168 47.175C204.532 47.1057 204.926 47.071 205.351 47.071ZM214.73 47.24V48.254H212.533V54H211.324V48.254H209.127V47.24H214.73ZM215.476 55.261C215.571 55.3043 215.692 55.3433 215.84 55.378C215.996 55.4213 216.147 55.443 216.295 55.443C216.771 55.443 217.144 55.3347 217.413 55.118C217.681 54.91 217.924 54.5677 218.141 54.091C217.595 53.051 217.083 51.9503 216.607 50.789C216.139 49.619 215.749 48.436 215.437 47.24H216.737C216.832 47.63 216.945 48.0503 217.075 48.501C217.213 48.9517 217.365 49.4153 217.53 49.892C217.694 50.3687 217.872 50.8453 218.063 51.322C218.253 51.7987 218.453 52.258 218.661 52.7C218.99 51.79 219.276 50.8887 219.519 49.996C219.761 49.1033 219.991 48.1847 220.208 47.24H221.456C221.144 48.514 220.797 49.7403 220.416 50.919C220.034 52.089 219.623 53.1853 219.181 54.208C219.007 54.598 218.825 54.9317 218.635 55.209C218.453 55.495 218.249 55.729 218.024 55.911C217.798 56.093 217.543 56.2273 217.257 56.314C216.979 56.4007 216.663 56.444 216.308 56.444C216.212 56.444 216.113 56.4353 216.009 56.418C215.905 56.4093 215.801 56.392 215.697 56.366C215.601 56.3487 215.51 56.327 215.424 56.301C215.346 56.275 215.289 56.2533 215.255 56.236L215.476 55.261ZM227.423 50.633C227.423 49.8443 227.228 49.2377 226.838 48.813C226.448 48.3883 225.928 48.176 225.278 48.176C224.914 48.176 224.628 48.189 224.42 48.215C224.221 48.241 224.061 48.2713 223.939 48.306V52.57C224.087 52.6913 224.299 52.8083 224.576 52.921C224.854 53.0337 225.157 53.09 225.486 53.09C225.833 53.09 226.128 53.0293 226.37 52.908C226.622 52.778 226.825 52.6047 226.981 52.388C227.137 52.1627 227.25 51.9027 227.319 51.608C227.389 51.3047 227.423 50.9797 227.423 50.633ZM228.684 50.633C228.684 51.1443 228.615 51.6167 228.476 52.05C228.346 52.4833 228.151 52.856 227.891 53.168C227.631 53.48 227.311 53.7227 226.929 53.896C226.557 54.0693 226.128 54.156 225.642 54.156C225.252 54.156 224.906 54.104 224.602 54C224.308 53.896 224.087 53.7963 223.939 53.701V56.405H222.73V47.448C223.016 47.3787 223.372 47.305 223.796 47.227C224.23 47.1403 224.728 47.097 225.291 47.097C225.811 47.097 226.279 47.1793 226.695 47.344C227.111 47.5087 227.467 47.7427 227.761 48.046C228.056 48.3493 228.281 48.722 228.437 49.164C228.602 49.5973 228.684 50.087 228.684 50.633ZM232.674 53.129C232.96 53.129 233.211 53.1247 233.428 53.116C233.653 53.0987 233.839 53.0727 233.987 53.038V51.023C233.9 50.9797 233.757 50.945 233.558 50.919C233.367 50.8843 233.133 50.867 232.856 50.867C232.674 50.867 232.479 50.88 232.271 50.906C232.071 50.932 231.885 50.9883 231.712 51.075C231.547 51.153 231.408 51.2657 231.296 51.413C231.183 51.5517 231.127 51.738 231.127 51.972C231.127 52.4053 231.265 52.7087 231.543 52.882C231.82 53.0467 232.197 53.129 232.674 53.129ZM232.57 47.071C233.055 47.071 233.462 47.136 233.792 47.266C234.13 47.3873 234.398 47.565 234.598 47.799C234.806 48.0243 234.953 48.2973 235.04 48.618C235.126 48.93 235.17 49.2767 235.17 49.658V53.883C235.066 53.9003 234.918 53.9263 234.728 53.961C234.546 53.987 234.338 54.013 234.104 54.039C233.87 54.065 233.614 54.0867 233.337 54.104C233.068 54.13 232.799 54.143 232.531 54.143C232.149 54.143 231.798 54.104 231.478 54.026C231.157 53.948 230.88 53.8267 230.646 53.662C230.412 53.4887 230.23 53.2633 230.1 52.986C229.97 52.7087 229.905 52.375 229.905 51.985C229.905 51.6123 229.978 51.2917 230.126 51.023C230.282 50.7543 230.49 50.5377 230.75 50.373C231.01 50.2083 231.313 50.087 231.66 50.009C232.006 49.931 232.37 49.892 232.752 49.892C232.873 49.892 232.999 49.9007 233.129 49.918C233.259 49.9267 233.38 49.944 233.493 49.97C233.614 49.9873 233.718 50.0047 233.805 50.022C233.891 50.0393 233.952 50.0523 233.987 50.061V49.723C233.987 49.5237 233.965 49.3287 233.922 49.138C233.878 48.9387 233.8 48.7653 233.688 48.618C233.575 48.462 233.419 48.3407 233.22 48.254C233.029 48.1587 232.778 48.111 232.466 48.111C232.067 48.111 231.716 48.1413 231.413 48.202C231.118 48.254 230.897 48.3103 230.75 48.371L230.607 47.37C230.763 47.3007 231.023 47.2357 231.387 47.175C231.751 47.1057 232.145 47.071 232.57 47.071Z" fill="#757575"/>
<defs>
<linearGradient id="paint0_linear" x1="27.4408" y1="0.440918" x2="27.4408" y2="54.014" gradientUnits="userSpaceOnUse">
<stop stop-color="#0074FF"/>
<stop offset="1" stop-color="#0044FF"/>
</linearGradient>
</defs>
</svg>
