<svg width="15" height="15" viewBox="0 0 15 15" fill="none" xmlns="http://www.w3.org/2000/svg">
<path fill-rule="evenodd" clip-rule="evenodd" d="M14.6705 1.92049C15.1098 1.48115 15.1098 0.768844 14.6705 0.329505C14.2311 -0.109835 13.5188 -0.109835 13.0795 0.329505L7.5 5.90901L1.92049 0.329505C1.48115 -0.109835 0.768844 -0.109835 0.329505 0.329505C-0.109835 0.768844 -0.109835 1.48115 0.329505 1.92049L5.90901 7.5L0.329505 13.0795C-0.109835 13.5188 -0.109835 14.2311 0.329505 14.6705C0.768844 15.1098 1.48115 15.1098 1.92049 14.6705L7.5 9.09099L13.0795 14.6705C13.5188 15.1098 14.2311 15.1098 14.6705 14.6705C15.1098 14.2311 15.1098 13.5188 14.6705 13.0795L9.09099 7.5L14.6705 1.92049Z" fill="black"/>
</svg>
