<svg width="107" height="25" viewBox="0 0 107 25" fill="none" xmlns="http://www.w3.org/2000/svg">
<path fill-rule="evenodd" clip-rule="evenodd" d="M44.298 14.8976C45.4812 13.8216 46.0701 12.4337 46.0701 10.7288C46.0701 9.03941 45.4812 7.65674 44.298 6.57555C43.1149 5.49956 41.5952 4.95897 39.7389 4.95897H35.6426V16.4882H39.7389C41.6057 16.4934 43.1254 15.9632 44.298 14.8976ZM39.5759 6.62753C41.0325 6.62753 42.1683 6.99659 42.9729 7.72951C43.7932 8.47803 44.1981 9.47605 44.1981 10.7288C44.1981 11.9815 43.7879 12.9795 42.9729 13.728C42.1683 14.4661 41.0325 14.83 39.5759 14.83H37.4725V6.62753H39.5759ZM57.644 15.7864V13.9567C56.7606 14.6585 55.6563 15.0119 54.3259 15.0119C53.0744 15.0119 52.0437 14.6117 51.2287 13.8112C50.4083 13.0003 50.0034 11.9711 50.0034 10.7288C50.0034 9.48644 50.4083 8.46763 51.2129 7.66714C52.0332 6.85624 53.0481 6.4508 54.2628 6.4508C55.3723 6.4404 56.4661 6.75748 57.3968 7.35525V5.52555C56.4766 5.01095 55.4302 4.75105 54.247 4.75105C52.4802 4.75105 51.0183 5.31763 49.872 6.4456C48.7099 7.56318 48.1314 8.99263 48.1314 10.7288C48.1314 12.4649 48.7099 13.8944 49.872 15.0275C51.0551 16.1451 52.5117 16.7065 54.247 16.7065C55.5406 16.7065 56.6712 16.3998 57.644 15.7864ZM61.7035 7.72951L64.9375 12.0803H65.9997L69.2336 7.72951V16.4934H71.0583V4.96417H69.2336L65.5054 10.1518L61.7403 4.96417H59.8841V16.4934H61.7088V7.72951H61.7035ZM74.4869 15.5213C75.3703 16.3114 76.4377 16.7065 77.684 16.7065C78.9303 16.7065 79.9346 16.4414 80.6866 15.9164V14.4194C79.8978 14.8924 78.9934 15.1471 78.0679 15.1419C77.2265 15.1419 76.5324 14.9496 75.9855 14.5649C75.4386 14.1803 75.1074 13.6501 74.9969 12.9691H81.2282V12.5065C81.2282 10.8795 80.655 9.66317 79.5034 8.85228C78.9197 8.41565 78.2046 8.19214 77.3632 8.19214C76.138 8.19214 75.1284 8.59758 74.3449 9.40847C73.5719 10.209 73.1828 11.2226 73.1828 12.4389C73.1933 13.7072 73.6245 14.7312 74.4869 15.5213ZM75.7226 10.2454C76.138 9.87629 76.6586 9.69436 77.2896 9.69436C77.9522 9.69436 78.4728 9.89189 78.8461 10.2869C79.1984 10.6456 79.4088 11.1186 79.4245 11.6228H75.0127C75.0653 11.0874 75.3177 10.5936 75.7226 10.2454ZM89.5208 15.3914V16.4934H91.3087V4.96417H89.5208V9.51243C88.8372 8.63397 87.8696 8.19733 86.6181 8.19214C85.4665 8.19214 84.5253 8.60278 83.7838 9.42926C83.0424 10.2402 82.6743 11.2486 82.6743 12.4441C82.6743 13.6501 83.0424 14.6637 83.7838 15.4746C84.5253 16.2958 85.4718 16.7117 86.6181 16.7117C87.8696 16.7065 88.8372 16.2699 89.5208 15.3914ZM85.2299 14.3674C84.7303 13.8424 84.4832 13.1978 84.4832 12.4389C84.4832 11.6904 84.7303 11.0614 85.2299 10.5468C85.7295 10.0218 86.3499 9.75674 87.1019 9.75674C87.6015 9.75674 88.0958 9.89709 88.5164 10.1622C88.9371 10.4117 89.2789 10.7704 89.5208 11.1914V13.6968C89.2894 14.1283 88.9424 14.4869 88.5269 14.7416C88.101 15.0067 87.6067 15.1471 87.1019 15.1471C86.3499 15.1419 85.7242 14.8872 85.2299 14.3674ZM95.8047 8.40526H94.0115V16.4934H95.8047V8.40526ZM95.6995 6.63793C95.9151 6.42481 96.0308 6.13892 96.0255 5.83743C96.0308 5.53595 95.9151 5.24486 95.6995 5.03174C95.4944 4.81862 95.2105 4.69907 94.9107 4.70426C94.6057 4.69907 94.3165 4.81862 94.1062 5.03174C93.8906 5.24486 93.7749 5.53595 93.7854 5.83743C93.7749 6.13372 93.8958 6.42481 94.1062 6.63793C94.3165 6.85105 94.611 6.9654 94.9107 6.9602C95.2052 6.9654 95.4892 6.84585 95.6995 6.63793ZM105.659 14.8976C105.533 14.7572 105.47 14.5597 105.47 14.305V11.2902C105.47 10.3129 105.128 9.55402 104.45 9.00822C103.771 8.46243 102.856 8.19214 101.705 8.19214C100.532 8.19214 99.5434 8.42085 98.7389 8.88347V10.4481C99.5066 9.96986 100.401 9.72035 101.31 9.72555C102.904 9.72555 103.698 10.3129 103.698 11.4877V11.9347C102.946 11.5189 102.078 11.3109 101.095 11.3109C100.164 11.3109 99.3909 11.5449 98.7757 12.0179C98.1447 12.4805 97.8292 13.1355 97.8292 13.9931C97.8292 14.8508 98.1184 15.5161 98.6916 15.984C99.2753 16.4674 100.006 16.7065 100.879 16.7065C102.141 16.7065 103.14 16.2907 103.882 15.4538C104.092 16.2231 104.66 16.6077 105.591 16.6077C106.043 16.6077 106.39 16.5194 106.637 16.3426V14.9911C106.49 15.0691 106.322 15.1107 106.159 15.1055C105.964 15.1159 105.78 15.0379 105.659 14.8976ZM102.667 14.9028C102.262 15.0795 101.82 15.1731 101.373 15.1731C100.832 15.1731 100.406 15.0639 100.09 14.8456C99.7748 14.6273 99.6171 14.305 99.6171 13.8892C99.6065 13.5149 99.8011 13.1614 100.122 12.9691C100.458 12.7508 100.926 12.6416 101.521 12.6416C102.283 12.6416 103.03 12.8392 103.692 13.2186V14.2062C103.408 14.5077 103.056 14.7468 102.667 14.9028Z" fill="white"/>
<path fill-rule="evenodd" clip-rule="evenodd" d="M35.9147 19.7422H35.7727V23.3445H35.9147V19.7422ZM35.7096 18.2816C35.6202 18.37 35.6202 18.4531 35.7096 18.5415C35.799 18.6299 35.8884 18.6299 35.9778 18.5415C36.0672 18.4531 36.0672 18.37 35.9778 18.2816C35.8884 18.1932 35.799 18.1932 35.7096 18.2816ZM39.3485 20.0489C39.6377 19.8774 39.969 19.7838 40.3108 19.7786C41.1995 19.7786 41.6464 20.2465 41.6464 21.1821V23.3445H41.7884V21.1561C41.7884 20.6727 41.6622 20.2984 41.4151 20.0385C41.1679 19.7786 40.8051 19.6487 40.3266 19.6487C39.9953 19.6487 39.664 19.7267 39.3748 19.8774C39.0961 20.0125 38.8489 20.2101 38.6544 20.4544V19.7422H38.5124V23.3445H38.6544V20.6779C38.8279 20.418 39.0698 20.2049 39.3485 20.0489ZM46.2686 23.2665V23.121C46.0688 23.2457 45.8374 23.3133 45.5955 23.3133C45.0907 23.3133 44.8383 23.0482 44.8383 22.518V19.8774H46.3317V19.7474H44.8383V18.5207H44.6963V19.7474H43.6867V19.8774H44.6963V22.5544C44.6963 22.8507 44.7752 23.0742 44.9382 23.2197C45.096 23.3705 45.3168 23.4432 45.5955 23.4432C45.8322 23.4484 46.0688 23.3861 46.2686 23.2665ZM51.3273 23.121V22.9754C51.0012 23.1989 50.6016 23.3133 50.1178 23.3133C49.5815 23.3133 49.1345 23.147 48.7769 22.8143C48.4246 22.4764 48.2511 22.0554 48.2511 21.5512V21.4992H51.627V21.4472C51.627 21.3069 51.6112 21.1665 51.5849 21.0314C51.5481 20.8702 51.4955 20.7091 51.4219 20.5583C51.3483 20.3972 51.2484 20.2465 51.1222 20.1113C50.9855 19.971 50.8172 19.8618 50.6279 19.789C50.407 19.7007 50.1704 19.6539 49.9285 19.6591C49.3922 19.6591 48.9557 19.8358 48.6192 20.1945C48.2774 20.5583 48.1038 21.0106 48.1038 21.5512C48.1038 22.097 48.2984 22.5492 48.6823 22.9078C49.0661 23.2665 49.5447 23.4432 50.1178 23.4432C50.6226 23.4432 51.0275 23.3341 51.3273 23.121ZM48.7401 20.2724C49.0398 19.945 49.4395 19.7838 49.9338 19.7838C50.1862 19.7786 50.4386 19.8306 50.6647 19.9398C50.8645 20.0333 51.0328 20.1789 51.159 20.3556C51.3693 20.6519 51.485 21.0002 51.4903 21.3588H48.2616C48.2826 20.9586 48.4509 20.5687 48.7401 20.2724ZM53.967 20.8026C54.109 20.522 54.3193 20.2724 54.5823 20.0905C54.8399 19.893 55.1554 19.7838 55.4815 19.7838V19.6539C55.1397 19.6591 54.8136 19.763 54.5349 19.9554C54.3036 20.1165 54.109 20.3244 53.967 20.5687V19.7474H53.825V23.3497H53.967V20.8026ZM58.1843 20.0489C58.4735 19.8774 58.8048 19.7838 59.1466 19.7786C60.0353 19.7786 60.4823 20.2465 60.4823 21.1821V23.3445H60.6242V21.1561C60.6242 20.6727 60.498 20.2984 60.2509 20.0385C60.0037 19.7786 59.6409 19.6487 59.1624 19.6487C58.8311 19.6487 58.4998 19.7267 58.2053 19.8774C57.9267 20.0125 57.6795 20.2101 57.4849 20.4544V19.7422H57.343V23.3445H57.4849V20.6779C57.6637 20.418 57.9004 20.2049 58.1843 20.0489ZM65.9774 23.121V22.9754C65.6513 23.1989 65.2517 23.3133 64.7679 23.3133C64.2316 23.3133 63.7846 23.147 63.427 22.8143C63.0747 22.4764 62.9012 22.0554 62.9012 21.5512V21.4992H66.2771V21.4472C66.2771 21.3069 66.2613 21.1665 66.235 21.0314C66.1982 20.8702 66.1456 20.7091 66.072 20.5583C65.9984 20.3972 65.8985 20.2465 65.7723 20.1113C65.6356 19.971 65.4673 19.8618 65.278 19.789C65.0571 19.7007 64.8205 19.6539 64.5786 19.6591C64.0422 19.6591 63.6058 19.8358 63.2693 20.1945C62.9275 20.5583 62.7539 21.0106 62.7539 21.5512C62.7539 22.097 62.9485 22.5492 63.3324 22.9078C63.7162 23.2665 64.1947 23.4432 64.7679 23.4432C65.278 23.4432 65.6776 23.3341 65.9774 23.121ZM63.3902 20.2724C63.6899 19.945 64.0896 19.7838 64.5839 19.7838C64.8363 19.7786 65.0887 19.8306 65.3148 19.9398C65.5146 20.0333 65.6829 20.1789 65.8091 20.3556C66.0194 20.6519 66.1351 21.0002 66.1404 21.3588H62.9117C62.9327 20.9586 63.1062 20.5687 63.3902 20.2724ZM70.4628 23.2665V23.121C70.263 23.2457 70.0316 23.3133 69.7898 23.3133C69.2849 23.3133 69.0325 23.0482 69.0325 22.518V19.8774H70.5259V19.7474H69.0325V18.5207H68.8906V19.7474H67.8809V19.8774H68.8906V22.5544C68.8906 22.8507 68.9694 23.0742 69.1325 23.2197C69.2955 23.3653 69.5111 23.4432 69.7898 23.4432C70.0264 23.4484 70.2578 23.3861 70.4628 23.2665ZM78.6398 22.6843C78.6398 22.9026 78.6923 23.0742 78.8028 23.1937C78.9079 23.3133 79.0604 23.3757 79.2234 23.3757C79.2971 23.3757 79.3759 23.3653 79.4443 23.3393V23.2093C79.3759 23.2353 79.3023 23.2509 79.2287 23.2457C79.0972 23.2509 78.971 23.1937 78.8974 23.0898C78.8133 22.965 78.7712 22.8143 78.7765 22.6635V20.943C78.7765 20.5168 78.6345 20.1997 78.3505 19.9814C78.0666 19.763 77.688 19.6539 77.2042 19.6539C76.6836 19.6539 76.2472 19.7786 75.9001 20.0229V20.1737C76.2787 19.9138 76.7309 19.7734 77.1937 19.7838C77.6564 19.7838 78.014 19.8826 78.2612 20.0801C78.5083 20.2776 78.6345 20.5635 78.6345 20.9378V21.5668C78.1612 21.2809 77.6144 21.1249 77.057 21.1197C76.5942 21.1197 76.2156 21.2289 75.9264 21.4472C75.6477 21.6395 75.4847 21.9514 75.4952 22.2841C75.4952 22.6479 75.6372 22.9338 75.9211 23.1418C76.2209 23.3445 76.5784 23.4484 76.9413 23.4432C77.5986 23.4536 78.2243 23.1729 78.6398 22.6843ZM76.0368 23.0586C75.7739 22.8819 75.6424 22.622 75.6424 22.2841C75.6424 21.9774 75.7739 21.7279 76.0421 21.5356C76.3103 21.3432 76.6626 21.2497 77.1043 21.2497C77.6196 21.2497 78.1349 21.4056 78.645 21.7227V22.4764C78.461 22.7155 78.2243 22.9182 77.9562 23.069C77.6617 23.2301 77.3304 23.3185 76.9939 23.3133C76.6573 23.3185 76.326 23.2301 76.0368 23.0586ZM84.3136 24.4776C84.6554 24.1918 84.829 23.7863 84.829 23.2561V19.7422H84.687V20.4648C84.3031 19.9242 83.7615 19.6539 83.0674 19.6539C82.4942 19.6539 82.0262 19.841 81.6634 20.2205C80.9482 20.969 80.9482 22.1333 81.6634 22.8819C82.0262 23.2561 82.4942 23.4432 83.0674 23.4432C83.7615 23.4432 84.3031 23.1729 84.687 22.6323V23.2561C84.687 23.7395 84.5292 24.119 84.2085 24.3841C83.893 24.6492 83.4565 24.7843 82.9096 24.7843C82.4101 24.7947 81.921 24.6648 81.4951 24.4153V24.566C81.9316 24.7999 82.4259 24.9195 82.9254 24.9091C83.5091 24.9039 83.9718 24.7635 84.3136 24.4776ZM81.7843 22.8039C81.4478 22.466 81.2637 22.0138 81.269 21.546C81.2585 21.0781 81.4425 20.6259 81.7843 20.2932C82.1209 19.9554 82.5889 19.7682 83.0726 19.7786C83.4144 19.7786 83.751 19.867 84.0402 20.0437C84.3242 20.2049 84.5503 20.444 84.6923 20.7299V22.3569C84.5503 22.6427 84.3242 22.8819 84.0402 23.043C83.751 23.2197 83.4144 23.3081 83.0726 23.3081C82.5889 23.3237 82.1209 23.1366 81.7843 22.8039ZM90.2662 23.121V22.9754C89.9402 23.1989 89.5353 23.3133 89.0568 23.3133C88.5204 23.3133 88.0734 23.147 87.7159 22.8143C87.3636 22.4764 87.1848 22.0554 87.1848 21.5512V21.4992H90.5607V21.4472C90.5607 21.3069 90.5449 21.1665 90.5186 21.0314C90.4818 20.8702 90.4292 20.7091 90.3556 20.5583C90.282 20.3972 90.1768 20.2465 90.0559 20.1113C89.9139 19.971 89.7456 19.8618 89.5616 19.789C89.3407 19.7007 89.1041 19.6539 88.8622 19.6591C88.3259 19.6591 87.8894 19.8358 87.5529 20.1945C87.2111 20.5583 87.0375 21.0106 87.0375 21.5512C87.0375 22.097 87.2321 22.5492 87.616 22.9078C87.9998 23.2665 88.4784 23.4432 89.0515 23.4432C89.5616 23.4432 89.9665 23.3341 90.2662 23.121ZM87.6791 20.2724C87.9788 19.945 88.3784 19.7838 88.8727 19.7838C89.1251 19.7786 89.3775 19.8306 89.6037 19.9398C89.8035 20.0333 89.9718 20.1789 90.098 20.3556C90.3083 20.6519 90.424 21.0002 90.4292 21.3588H87.2005C87.2216 20.9586 87.3899 20.5687 87.6791 20.2724ZM93.6001 20.0489C93.8893 19.8774 94.2206 19.7838 94.5624 19.7786C95.4511 19.7786 95.898 20.2465 95.898 21.1821V23.3445H96.04V21.1561C96.04 20.6727 95.9138 20.2984 95.6667 20.0385C95.4195 19.7786 95.0567 19.6487 94.5782 19.6487C94.2469 19.6487 93.9156 19.7267 93.6211 19.8774C93.3424 20.0125 93.0953 20.2101 92.9007 20.4544V19.7422H92.7587V23.3445H92.9007V20.6779C93.0848 20.418 93.3214 20.2049 93.6001 20.0489ZM98.7166 22.8819C99.0689 23.2561 99.5369 23.4432 100.115 23.4432C100.578 23.4432 100.978 23.3289 101.32 23.1054V22.9494C100.967 23.1937 100.547 23.3185 100.115 23.3081C99.6368 23.3185 99.1741 23.1366 98.8375 22.8039C98.501 22.466 98.3169 22.0138 98.3222 21.546C98.3117 21.0781 98.4957 20.6259 98.8375 20.2932C99.1688 19.9554 99.6368 19.7682 100.115 19.7786C100.515 19.7734 100.904 19.8826 101.246 20.0905V19.9346C100.904 19.7371 100.515 19.6331 100.115 19.6435C99.5422 19.6435 99.0742 19.8306 98.7166 20.2101C98.0014 20.969 98.0014 22.1281 98.7166 22.8819ZM104.133 24.6388C104.312 24.4621 104.501 24.171 104.695 23.7707L106.631 19.7422H106.473L104.885 23.0326L103.265 19.7422H103.107L104.806 23.1989C104.564 23.7551 104.348 24.1606 104.159 24.4101C103.975 24.6492 103.754 24.7687 103.491 24.7687C103.323 24.7687 103.16 24.7271 103.018 24.644V24.7843C103.165 24.8623 103.334 24.9039 103.502 24.8987C103.738 24.9091 103.97 24.8103 104.133 24.6388Z" fill="white"/>
<path fill-rule="evenodd" clip-rule="evenodd" d="M0 0L15.5545 3.84653L30.6569 0V22.3723C30.6569 23.1884 32.6235 23.6614 32.6235 23.6614H29.0478V2.24554L15.5335 5.62426L1.8615 2.24554V23.6614H0V0Z" fill="white"/>
<path fill-rule="evenodd" clip-rule="evenodd" d="M26.2833 7.16309L16.5078 12.6262L26.3359 18.0217L18.8689 12.6314L26.2833 7.16309Z" fill="white"/>
<path fill-rule="evenodd" clip-rule="evenodd" d="M4.92773 7.19396C4.92773 7.19396 11.0538 6.8457 14.698 12.6311C11.6375 17.7927 5.54823 18.0474 5.54297 18.0474L4.94877 18.063L4.92773 7.19396Z" fill="white"/>
<path fill-rule="evenodd" clip-rule="evenodd" d="M5.33203 7.69788C5.33203 7.69788 10.9218 7.386 14.2188 12.61C11.4529 17.2726 5.94201 17.5533 5.94201 17.5533L5.34781 17.5689L5.33203 7.69788Z" fill="#EAC63C"/>
<path d="M8.95584 15.7036C9.71673 15.7036 10.3336 14.3608 10.3336 12.7043C10.3336 11.0479 9.71673 9.70508 8.95584 9.70508C8.19495 9.70508 7.57812 11.0479 7.57812 12.7043C7.57812 14.3608 8.19495 15.7036 8.95584 15.7036Z" fill="black"/>
<path fill-rule="evenodd" clip-rule="evenodd" d="M8.86133 9.32031L9.22942 12.0285L9.78156 9.51264" fill="#EAC63C"/>
</svg>
