<svg width="30" height="30" viewBox="0 0 30 30" fill="none" xmlns="http://www.w3.org/2000/svg">
<rect width="30" height="30" rx="5" fill="url(#paint0_radial)"/>
<g clip-path="url(#clip0)">
<path d="M9.42468 7.49897H20.5739C20.8284 7.49275 21.0815 7.53829 21.3179 7.63283C21.5542 7.72738 21.769 7.86895 21.949 8.04896C22.129 8.22897 22.2706 8.44368 22.3651 8.68005C22.4596 8.91643 22.5052 9.16954 22.499 9.42404V20.5739C22.5052 20.8284 22.4596 21.0815 22.3651 21.3179C22.2706 21.5543 22.129 21.769 21.949 21.949C21.769 22.129 21.5542 22.2706 21.3179 22.3651C21.0815 22.4597 20.8284 22.5052 20.5739 22.499H9.42468C9.17018 22.5052 8.91707 22.4597 8.68069 22.3651C8.44432 22.2706 8.22962 22.129 8.0496 21.949C7.86959 21.769 7.72802 21.5543 7.63347 21.3179C7.53893 21.0815 7.49339 20.8284 7.49962 20.5739V9.42404C7.49339 9.16954 7.53893 8.91643 7.63347 8.68005C7.72802 8.44368 7.86959 8.22897 8.0496 8.04896C8.22962 7.86895 8.44432 7.72738 8.68069 7.63283C8.91707 7.53829 9.17018 7.49275 9.42468 7.49897ZM18.4265 9.16557C18.2476 9.16609 18.0762 9.23744 17.9497 9.36402C17.8233 9.4906 17.7521 9.6621 17.7517 9.84102V11.457C17.7521 11.6359 17.8233 11.8074 17.9497 11.934C18.0762 12.0605 18.2476 12.1319 18.4265 12.1324H20.1221C20.301 12.1319 20.4725 12.0606 20.5991 11.934C20.7257 11.8075 20.797 11.636 20.7975 11.457V9.84102C20.797 9.66204 20.7257 9.49054 20.5991 9.36398C20.4725 9.23742 20.301 9.16609 20.1221 9.16557H18.4265ZM20.8041 13.8424H19.4841C19.6119 14.2593 19.6768 14.6929 19.6768 15.1289C19.6572 16.3461 19.1551 17.5058 18.2808 18.3529C17.4066 19.2001 16.2317 19.6654 15.0144 19.6466C13.7969 19.6657 12.6216 19.2005 11.7471 18.3531C10.8727 17.5058 10.3706 16.3457 10.3514 15.1282C10.3512 14.6922 10.4162 14.2586 10.5441 13.8418H9.16621V20.178C9.16656 20.3361 9.22952 20.4876 9.34131 20.5994C9.45311 20.7112 9.60463 20.7742 9.76274 20.7745H20.2082C20.3663 20.7742 20.5178 20.7112 20.6296 20.5994C20.7414 20.4876 20.8044 20.3361 20.8047 20.178V13.8424H20.8041ZM15.0164 12.0476C14.2299 12.0354 13.4709 12.3361 12.906 12.8834C12.3412 13.4308 12.0168 14.18 12.0042 14.9664C12.0168 15.7529 12.3412 16.5021 12.906 17.0494C13.4709 17.5968 14.2299 17.8974 15.0164 17.8853C15.8029 17.8976 16.5622 17.597 17.1272 17.0497C17.6922 16.5023 18.0166 15.753 18.0293 14.9664C18.023 14.5767 17.94 14.1921 17.7851 13.8345C17.6302 13.4769 17.4063 13.1533 17.1262 12.8823C16.8462 12.6112 16.5155 12.398 16.153 12.2547C15.7906 12.1115 15.4034 12.0411 15.0138 12.0476H15.0164Z" fill="white"/>
</g>
<defs>
<radialGradient id="paint0_radial" cx="0" cy="0" r="1" gradientUnits="userSpaceOnUse" gradientTransform="translate(6.14983 26.2176) scale(33.0847)">
<stop stop-color="#FBCE0E"/>
<stop offset="0.1829" stop-color="#FCB720"/>
<stop offset="0.2514" stop-color="#FE9838"/>
<stop offset="0.3054" stop-color="#FF7950"/>
<stop offset="0.4922" stop-color="#FF1C74"/>
<stop offset="1" stop-color="#6C1CD1"/>
</radialGradient>
<clipPath id="clip0">
<rect width="15" height="15" fill="white" transform="translate(7.50095 7.5)"/>
</clipPath>
</defs>
</svg>
