<svg width="30" height="30" viewBox="0 0 30 30" fill="none" xmlns="http://www.w3.org/2000/svg">
<path d="M25 0H5C2.23858 0 0 2.23858 0 5V25C0 27.7614 2.23858 30 5 30H25C27.7614 30 30 27.7614 30 25V5C30 2.23858 27.7614 0 25 0Z" fill="#039BE5"/>
<path d="M6.7118 13.6484L22.96 7.38368C23.7141 7.11124 24.3727 7.56765 24.1284 8.70797L24.1298 8.70657L21.3633 21.7402C21.1582 22.6643 20.6091 22.889 19.841 22.4536L15.6279 19.3486L13.5959 21.3063C13.3712 21.531 13.1816 21.7206 12.7462 21.7206L13.0454 17.4331L20.8535 10.3791C21.1933 10.08 20.7776 9.91149 20.3297 10.2092L10.6805 16.2844L6.52081 14.9868C5.61782 14.7003 5.59816 14.0838 6.7118 13.6484Z" fill="white"/>
</svg>
