<svg width="30" height="30" viewBox="0 0 30 30" fill="none" xmlns="http://www.w3.org/2000/svg">
<rect width="30" height="30" rx="5" fill="#006BB9"/>
<g clip-path="url(#clip0)">
<path d="M23.1062 19.4394C23.0898 19.4004 23.0715 19.3623 23.0514 19.3254C22.6077 18.5711 22.0632 17.8915 21.4356 17.3086L21.419 17.2901L21.4108 17.2812L21.4025 17.2723H21.3942C21.0334 16.901 20.8051 16.6515 20.7092 16.5238C20.6266 16.4252 20.5717 16.3034 20.5507 16.1725C20.5298 16.0416 20.5436 15.907 20.5907 15.7842C20.8057 15.3578 21.0617 14.9571 21.3547 14.5887C21.5861 14.2683 21.7694 14.0097 21.9048 13.8128C22.881 12.4134 23.304 11.5191 23.1737 11.13L23.1234 11.0387C23.0523 10.9607 22.9607 10.9082 22.8611 10.8883C22.6838 10.8407 22.4994 10.833 22.3193 10.8656L19.8828 10.8835C19.827 10.8685 19.7684 10.8702 19.7134 10.8883L19.6033 10.9157L19.5606 10.9384L19.5269 10.9659C19.4911 10.9917 19.4596 11.024 19.4339 11.0613C19.3986 11.1098 19.37 11.1638 19.3493 11.2213C19.0964 11.9296 18.7938 12.6159 18.4439 13.2745C18.2351 13.6517 18.0441 13.9787 17.8709 14.2557C17.7401 14.4721 17.5929 14.6765 17.431 14.8668C17.3309 14.9797 17.2234 15.0848 17.1095 15.1813C17.0136 15.2605 16.9404 15.294 16.8899 15.2816L16.746 15.2452C16.6657 15.1893 16.6 15.1123 16.555 15.0213C16.5023 14.9104 16.4692 14.7897 16.4576 14.6656C16.4406 14.5224 16.4306 14.3992 16.4277 14.2962C16.4247 14.1932 16.4262 14.0472 16.4321 13.8581C16.438 13.6695 16.4408 13.5418 16.4404 13.475C16.4404 13.2438 16.4446 12.992 16.4531 12.7196C16.4616 12.4472 16.4686 12.2328 16.4741 12.0762C16.4801 11.9178 16.4828 11.7505 16.4824 11.5743C16.485 11.4362 16.4749 11.2982 16.4525 11.1623C16.4328 11.0618 16.4032 10.964 16.364 10.8704C16.3278 10.7804 16.2675 10.7041 16.1908 10.6514C16.1029 10.5946 16.0073 10.5532 15.9075 10.5285C15.5315 10.447 15.1488 10.4072 14.7653 10.4097C14.0846 10.3478 13.3991 10.4221 12.7433 10.6287C12.6228 10.6989 12.5149 10.7919 12.425 10.9034C12.3236 11.037 12.3093 11.1101 12.3823 11.1224C12.5204 11.1327 12.6553 11.1727 12.7788 11.24C12.9024 11.3073 13.0122 11.4007 13.1018 11.5145L13.1527 11.6244C13.2084 11.7583 13.2481 11.8993 13.2711 12.0439C13.3129 12.2634 13.3384 12.4862 13.3475 12.71C13.3759 13.0896 13.3759 13.471 13.3475 13.8506C13.3191 14.1669 13.2923 14.4132 13.2673 14.5894C13.2496 14.7379 13.2112 14.8826 13.1533 15.0186C13.1233 15.0877 13.0893 15.1546 13.0515 15.2191C13.0405 15.2372 13.0262 15.2526 13.0094 15.2644C12.9365 15.2948 12.859 15.3104 12.7809 15.3104C12.6711 15.3019 12.5664 15.257 12.481 15.182C12.3516 15.0802 12.2339 14.9622 12.1302 14.8305C11.9778 14.6346 11.8405 14.4256 11.7196 14.2056C11.5672 13.9378 11.4093 13.6215 11.2459 13.2566L11.1103 12.9915C11.0254 12.8213 10.9097 12.5734 10.7633 12.2479C10.6169 11.9224 10.4891 11.6077 10.3801 11.3037C10.342 11.1861 10.271 11.0841 10.177 11.0119L10.1343 10.9844C10.0925 10.9522 10.0469 10.9261 9.99869 10.9068C9.93603 10.8793 9.87067 10.8595 9.80388 10.8478L7.48581 10.8656C7.39855 10.8539 7.30997 10.8635 7.22657 10.8935C7.14317 10.9236 7.06707 10.9734 7.00386 11.0393L6.97012 11.0943C6.95019 11.1399 6.94143 11.1902 6.94465 11.2405C6.94816 11.3253 6.96539 11.4087 6.99559 11.487C7.33514 12.3449 7.70312 13.1724 8.09955 13.9694C8.49597 14.7664 8.84147 15.4073 9.13603 15.892C9.42931 16.3787 9.72833 16.838 10.0331 17.2702C10.3378 17.7023 10.5394 17.9791 10.6379 18.1004C10.7368 18.2221 10.8145 18.3137 10.8709 18.3751L11.0823 18.5941C11.2684 18.7852 11.4678 18.9606 11.6788 19.1187C11.9597 19.3353 12.2506 19.5363 12.5504 19.7209C12.901 19.9314 13.2749 20.093 13.6633 20.2016C14.0647 20.3238 14.4818 20.3748 14.8984 20.3527H15.868C16.0344 20.3475 16.1932 20.276 16.3137 20.1522L16.3474 20.1062C16.3765 20.0536 16.3979 19.9967 16.4111 19.9372C16.4316 19.8555 16.4417 19.7712 16.441 19.6866C16.4333 19.4493 16.4517 19.2119 16.4958 18.9793C16.5237 18.8149 16.5721 18.6553 16.6397 18.5048C16.6881 18.4062 16.7494 18.3155 16.8217 18.2357C16.8642 18.185 16.9126 18.1404 16.9656 18.1031C16.9874 18.091 17.01 18.0804 17.0331 18.0715C17.1175 18.052 17.205 18.0546 17.2882 18.0792C17.3714 18.1039 17.4479 18.1497 17.5112 18.213C17.7035 18.3651 17.877 18.543 18.0276 18.7424C18.1884 18.9525 18.3815 19.1883 18.6069 19.4497C18.7855 19.6655 18.9839 19.8613 19.199 20.0341L19.3684 20.1432C19.5073 20.2282 19.6549 20.2955 19.8083 20.3437C19.9601 20.402 20.1231 20.4176 20.282 20.3891L22.4466 20.3527C22.6194 20.3628 22.7916 20.3235 22.9457 20.2387C23.0436 20.1878 23.1194 20.098 23.1571 19.988C23.1799 19.8862 23.1814 19.7802 23.1616 19.6777C23.1511 19.5963 23.1325 19.5164 23.1062 19.4394Z" fill="white"/>
</g>
<defs>
<clipPath id="clip0">
<rect width="16.25" height="10" fill="white" transform="translate(6.94147 10.4127)"/>
</clipPath>
</defs>
</svg>
